<svg xmlns="http://www.w3.org/2000/svg" xmlns:xlink="http://www.w3.org/1999/xlink" width="1600" zoomAndPan="magnify" viewBox="0 0 1200 899.99999" height="1200" preserveAspectRatio="xMidYMid meet" version="1.0"><path fill="#000000" d="M 1071.566406 539.1875 L 970.335938 795.835938 L 966.078125 795.835938 L 958.847656 825.835938 L 646.3125 825.835938 L 646.3125 828.460938 L 444.4375 828.460938 L 444.4375 819.136719 L 361.726562 819.136719 L 361.726562 825.253906 L 306.960938 825.253906 L 306.960938 819.136719 L 232.085938 819.136719 L 232.085938 797.359375 L 217.902344 797.359375 L 217.902344 789.285156 L 207.847656 789.285156 L 207.847656 784.46875 L 197.128906 784.46875 L 197.128906 772.238281 L 193.859375 772.238281 L 193.859375 764.808594 L 187.101562 764.808594 L 187.101562 758.914062 L 180.539062 758.914062 L 180.539062 736.183594 L 169.71875 736.183594 L 169.71875 631.785156 L 175.414062 631.785156 L 175.414062 626.4375 L 182.71875 626.4375 L 182.71875 594.828125 L 188.980469 594.828125 L 188.980469 562.488281 L 196.113281 562.488281 L 196.113281 554.476562 L 204.851562 554.476562 L 204.851562 548.496094 L 213.59375 548.496094 L 213.59375 519.375 L 216.589844 519.375 L 216.589844 508.664062 L 225.550781 508.664062 L 225.550781 494.898438 L 226.839844 494.898438 L 226.839844 463.214844 L 234.710938 463.214844 L 234.710938 452.070312 L 244.121094 452.070312 L 244.121094 442.898438 L 249.777344 442.898438 L 249.777344 433.5 L 263.78125 433.5 L 263.78125 424.546875 L 271.207031 424.546875 L 271.207031 412.957031 L 272.0625 412.957031 L 272.0625 398.757812 L 281.902344 398.757812 L 281.902344 394.832031 L 300.683594 394.832031 L 300.683594 381.066406 L 334.109375 381.066406 L 334.109375 366.429688 L 367.96875 366.429688 L 367.96875 360.957031 L 376.929688 360.957031 L 376.929688 354.183594 L 396.390625 354.183594 L 396.390625 348.949219 L 389.160156 348.949219 L 389.160156 325.421875 L 304.78125 325.421875 L 304.78125 321.277344 L 287.003906 321.277344 L 287.003906 307.792969 L 282.992188 307.792969 L 282.992188 302.257812 L 280.046875 302.257812 L 280.046875 264.171875 L 287.003906 264.171875 L 287.003906 257.609375 L 293.046875 257.609375 L 293.046875 254.441406 L 301.351562 254.441406 L 301.351562 252.039062 L 313.917969 252.039062 L 313.917969 245.710938 L 320.34375 245.710938 L 320.34375 243.746094 L 329.539062 243.746094 L 329.539062 242.207031 L 332.871094 242.207031 L 332.871094 240.03125 L 337.402344 240.03125 L 337.402344 239.546875 L 351.253906 237.914062 L 351.253906 234.667969 L 359.894531 234.667969 L 359.894531 232.488281 L 368.96875 232.488281 L 368.96875 230.085938 L 395.386719 230.085938 L 395.386719 188.574219 L 397.679688 188.574219 L 397.679688 175.027344 L 399.449219 175.027344 L 399.449219 160.9375 L 404.140625 160.9375 L 404.140625 156.667969 L 409.476562 156.667969 L 409.476562 152.085938 L 414.390625 152.085938 L 414.390625 148.695312 L 419.765625 148.695312 L 419.765625 145.089844 L 422.476562 145.089844 L 422.476562 140.398438 L 424.441406 140.398438 L 424.441406 136.238281 L 437.738281 136.238281 L 437.738281 126.371094 L 443.867188 126.371094 L 443.867188 122.878906 L 451.566406 122.878906 L 451.566406 116.464844 L 461.472656 116.464844 L 461.472656 113.121094 L 468.042969 113.121094 L 468.042969 109.183594 L 472.253906 109.183594 L 472.253906 105.691406 L 478.097656 105.691406 L 478.097656 102.339844 L 488.136719 102.339844 L 488.136719 99.863281 L 501.382812 99.863281 L 501.382812 97.238281 L 517.265625 97.238281 L 517.265625 95.34375 L 540.132812 95.34375 L 540.132812 71.890625 L 584.117188 71.890625 L 584.117188 88.941406 L 634.042969 88.941406 L 634.042969 90.6875 L 648.898438 90.6875 L 648.898438 92.433594 L 656.859375 92.433594 L 656.859375 93.855469 L 664.410156 93.855469 L 664.410156 98.996094 L 671.839844 98.996094 L 671.839844 101.285156 L 680.46875 101.285156 L 680.46875 105.542969 L 699.691406 105.542969 L 699.691406 115.152344 L 701.75 115.152344 L 701.75 119.3125 L 711.6875 119.3125 L 711.6875 137.339844 L 732.351562 137.339844 L 732.351562 146.179688 L 740.421875 146.179688 L 740.421875 157.867188 L 742.933594 157.867188 L 742.933594 167.152344 L 745.671875 167.152344 L 745.671875 180.601562 L 747.40625 180.601562 L 747.40625 195.777344 L 756.601562 195.777344 L 756.601562 255.65625 L 765.652344 255.65625 L 765.652344 262.972656 L 772.648438 262.972656 L 772.648438 280.34375 L 793.394531 280.34375 L 793.394531 316.90625 L 783.789062 316.90625 L 783.789062 351.472656 L 771.011719 351.472656 L 771.011719 362.070312 L 769.042969 362.070312 L 769.042969 362.34375 L 772.734375 362.34375 L 772.734375 372.546875 L 777.089844 372.546875 L 777.089844 376.695312 L 783.21875 376.695312 L 783.21875 386.523438 L 789.917969 386.523438 L 789.917969 387.984375 L 803.597656 387.984375 L 803.597656 395.5625 L 816.707031 395.5625 L 816.707031 397.890625 L 825.519531 397.890625 L 825.519531 413.613281 L 838.394531 413.613281 L 838.394531 423.011719 L 849.339844 423.011719 L 849.339844 432.410156 L 861.125 432.410156 L 861.125 444.433594 L 873.800781 444.433594 L 873.800781 461.246094 L 883.183594 461.246094 L 883.183594 483.976562 L 893.90625 483.976562 L 893.90625 539.1875 Z M 1071.566406 539.1875 " fill-opacity="1" fill-rule="nonzero"/><path fill="#00ff9f" d="M 737.03125 551.566406 L 733.429688 563.847656 L 668.878906 783.457031 L 961.90625 783.457031 L 1053.367188 551.566406 Z M 810.070312 563.800781 L 825.582031 563.800781 L 825.582031 577.851562 L 810.070312 577.851562 Z M 731.210938 755.261719 L 700.1875 755.261719 L 697.351562 764.882812 L 685.109375 764.882812 L 692.910156 743.6875 L 731.285156 743.6875 Z M 747.8125 706.542969 L 716.132812 706.542969 L 706.527344 730.796875 L 695.164062 730.796875 L 716.132812 662.699219 L 727.496094 662.699219 L 717.222656 696.75 L 749.992188 696.75 Z M 789.753906 625.855469 L 777.375 625.855469 L 777.375 615.355469 L 789.753906 615.355469 Z M 800.242188 577.195312 L 757.417969 577.195312 L 753.644531 594.085938 L 788.234375 594.085938 L 788.234375 603.417969 L 749.992188 603.417969 L 746.933594 615.21875 L 760.042969 615.21875 L 760.042969 625.855469 L 743.007812 625.855469 L 737.03125 650.320312 L 719.847656 650.320312 L 747.8125 563.800781 L 800.242188 563.800781 Z M 862.585938 625.855469 L 810.070312 625.855469 L 810.070312 615.355469 L 862.585938 615.355469 Z M 864.480469 577.851562 L 844.808594 577.851562 L 844.808594 563.800781 L 864.480469 563.800781 Z M 913.191406 565.1875 L 979.609375 565.1875 L 979.609375 577.851562 L 913.191406 577.851562 Z M 998.613281 597.15625 L 998.613281 605.164062 L 972.828125 605.164062 L 972.828125 597.15625 Z M 947.484375 776.460938 L 924.335938 776.460938 L 924.335938 767.136719 L 950.765625 767.136719 Z M 954.15625 755.917969 L 935.042969 755.917969 L 935.042969 744.453125 L 957.425781 744.453125 Z M 966.820312 730.253906 L 955.136719 730.253906 L 955.136719 716.820312 L 970.96875 716.820312 Z M 975.488281 707.632812 L 955.171875 707.632812 L 955.171875 693.652344 L 980.292969 693.429688 Z M 994.714844 665.90625 L 977.640625 665.90625 L 977.640625 652.140625 L 999.703125 652.140625 Z M 1011.316406 625.855469 L 991.433594 625.855469 L 991.433594 615.355469 L 1015.027344 615.355469 Z M 998.648438 577.851562 L 998.648438 565.1875 L 1036.222656 565.1875 L 1031.195312 577.851562 Z M 998.648438 577.851562 " fill-opacity="1" fill-rule="nonzero"/><path fill="#00ff9f" d="M 737.042969 551.554688 L 719.5625 551.554688 L 651.398438 773.835938 L 660.425781 773.835938 L 724.800781 563.800781 L 733.429688 563.847656 Z M 737.042969 551.554688 " fill-opacity="1" fill-rule="nonzero"/><path fill="#00ff9f" d="M 658.679688 796.566406 L 652.699219 813.453125 L 949.09375 813.453125 L 953.167969 796.566406 Z M 658.679688 796.566406 " fill-opacity="1" fill-rule="nonzero"/><path fill="#00ff9f" d="M 642.757812 796.566406 L 647.488281 783.457031 L 504.589844 783.457031 L 504.589844 806.472656 L 456.816406 806.472656 L 456.816406 816.078125 L 635.960938 816.078125 L 639.195312 805.011719 L 621.390625 805.011719 L 621.390625 796.566406 Z M 575.375 805.011719 L 534.882812 805.011719 L 534.882812 796.566406 L 575.375 796.566406 Z M 605.667969 805.011719 L 587.890625 805.011719 L 587.890625 796.566406 L 605.667969 796.566406 Z M 605.667969 805.011719 " fill-opacity="1" fill-rule="nonzero"/><path fill="#00ff9f" d="M 504.589844 783.457031 L 445.660156 783.457031 L 441.675781 806.757812 L 454.203125 806.757812 L 455.367188 796.566406 L 504.589844 796.566406 Z M 504.589844 783.457031 " fill-opacity="1" fill-rule="nonzero"/><path fill="#00e0ff" d="M 319.339844 803.265625 L 349.347656 803.265625 L 349.347656 812.875 L 319.339844 812.875 Z M 319.339844 803.265625 " fill-opacity="1" fill-rule="nonzero"/><path fill="#ff0060" d="M 361.863281 775.59375 L 389.53125 775.59375 L 389.53125 785.796875 L 361.863281 785.796875 Z M 361.863281 775.59375 " fill-opacity="1" fill-rule="nonzero"/><path fill="#ff0060" d="M 267.195312 722.863281 L 287.585938 722.863281 L 287.585938 733.929688 L 267.195312 733.929688 Z M 267.195312 722.863281 " fill-opacity="1" fill-rule="nonzero"/><path fill="#00e0ff" d="M 303.308594 749.953125 L 319.328125 749.953125 L 319.328125 759.855469 L 303.308594 759.855469 Z M 303.308594 749.953125 " fill-opacity="1" fill-rule="nonzero"/><path fill="#ff0060" d="M 393.617188 752.859375 L 409.636719 752.859375 L 409.636719 763.644531 L 393.617188 763.644531 Z M 393.617188 752.859375 " fill-opacity="1" fill-rule="nonzero"/><path fill="#00e0ff" d="M 274.476562 604.867188 L 293.703125 604.867188 L 293.703125 614.476562 L 274.476562 614.476562 Z M 274.476562 604.867188 " fill-opacity="1" fill-rule="nonzero"/><path fill="#b708fe" d="M 244.46875 795.105469 L 270.390625 795.105469 L 270.390625 806.757812 L 244.46875 806.757812 Z M 244.46875 795.105469 " fill-opacity="1" fill-rule="nonzero"/><path fill="#b708fe" d="M 224.375 684.691406 L 250.59375 684.691406 L 250.59375 696.636719 L 224.375 696.636719 Z M 224.375 684.691406 " fill-opacity="1" fill-rule="nonzero"/><path fill="#b708fe" d="M 244.46875 784.976562 L 244.46875 777.339844 L 239.007812 777.339844 L 239.007812 771.433594 L 229.613281 771.433594 L 229.613281 764.660156 L 209.519531 764.660156 L 209.519531 772.089844 L 220.226562 772.089844 L 220.226562 776.894531 L 230.269531 776.894531 L 230.269531 784.976562 Z M 244.46875 784.976562 " fill-opacity="1" fill-rule="nonzero"/><path fill="#ff0060" d="M 215.636719 759.855469 L 215.636719 750.894531 L 209.519531 750.894531 L 209.519531 742.164062 L 202.089844 742.164062 L 202.089844 728.394531 L 192.917969 728.394531 L 192.917969 746.535156 L 199.46875 746.535156 L 199.46875 752.429688 L 206.238281 752.429688 L 206.238281 759.855469 Z M 215.636719 759.855469 " fill-opacity="1" fill-rule="nonzero"/><path fill="#ff0060" d="M 195.320312 723.800781 L 195.320312 714.960938 L 191.273438 714.960938 L 191.273438 698.347656 L 199.691406 698.347656 L 199.691406 690.671875 L 188.4375 690.671875 L 188.4375 670.601562 L 197.5 670.601562 L 197.5 651.917969 L 192.472656 651.917969 L 192.472656 646.246094 L 200.457031 646.246094 L 200.457031 638.816406 L 187.78125 638.816406 L 187.78125 644.167969 L 182.097656 644.167969 L 182.097656 723.800781 Z M 195.320312 723.800781 " fill-opacity="1" fill-rule="nonzero"/><path fill="#b708fe" d="M 205.582031 623.664062 L 208.355469 623.664062 L 208.355469 614.488281 L 218.542969 614.488281 L 218.542969 607.207031 L 195.097656 607.207031 L 195.097656 626.871094 L 205.445312 626.871094 Z M 205.582031 623.664062 " fill-opacity="1" fill-rule="nonzero"/><path fill="#b708fe" d="M 215.054688 586.816406 L 225.972656 586.816406 L 225.972656 560.878906 L 217.230469 560.878906 L 217.230469 566.859375 L 208.503906 566.859375 L 208.503906 574.867188 L 201.359375 574.867188 L 201.359375 597.886719 L 215.054688 597.886719 Z M 215.054688 586.816406 " fill-opacity="1" fill-rule="nonzero"/><path fill="#b708fe" d="M 230.925781 558.191406 L 243.167969 558.191406 L 243.167969 541.363281 L 236.171875 541.363281 L 236.171875 526.507812 L 245.78125 526.507812 L 245.78125 515.363281 L 256.488281 515.363281 L 256.488281 507.277344 L 237.917969 507.277344 L 237.917969 521.046875 L 228.96875 521.046875 L 228.96875 531.746094 L 225.972656 531.746094 L 225.972656 545.957031 L 230.925781 545.957031 Z M 230.925781 558.191406 " fill-opacity="1" fill-rule="nonzero"/><path fill="#ff0060" d="M 283.574219 436.929688 L 276.148438 436.929688 L 276.148438 445.878906 L 262.171875 445.878906 L 262.171875 455.277344 L 256.488281 455.277344 L 256.488281 464.453125 L 247.09375 464.453125 L 247.09375 475.59375 L 239.230469 475.59375 L 239.230469 492.199219 L 250.59375 492.199219 L 250.59375 479.53125 L 262.605469 479.53125 L 262.605469 470.136719 L 268.0625 470.136719 L 268.0625 461.617188 L 276.804688 461.617188 L 276.804688 452.875 L 284.886719 452.875 L 284.886719 443.253906 L 292.105469 443.253906 L 292.105469 435.828125 L 307.171875 435.828125 L 307.171875 425.339844 L 283.574219 425.339844 Z M 283.574219 436.929688 " fill-opacity="1" fill-rule="nonzero"/><path fill="#ff0060" d="M 313.074219 407.214844 L 294.28125 407.214844 L 294.28125 411.140625 L 284.453125 411.140625 L 284.453125 418.789062 L 296.683594 418.789062 L 296.671875 415.507812 L 311.316406 415.507812 L 311.316406 410.929688 L 325.53125 410.929688 L 325.53125 401.742188 L 342.128906 401.742188 L 342.128906 393.445312 L 313.074219 393.445312 Z M 313.074219 407.214844 " fill-opacity="1" fill-rule="nonzero"/><path fill="#ff0060" d="M 346.5 378.8125 L 367.90625 378.8125 L 367.90625 389.074219 L 346.5 389.074219 Z M 346.5 378.8125 " fill-opacity="1" fill-rule="nonzero"/><path fill="#ff0060" d="M 389.308594 366.566406 L 389.308594 373.339844 L 380.359375 373.339844 L 380.359375 380.765625 L 389.308594 380.765625 L 389.308594 377.277344 L 401.554688 377.277344 L 401.554688 366.566406 Z M 389.308594 366.566406 " fill-opacity="1" fill-rule="nonzero"/><path fill="#00ff9f" d="M 459.15625 366.566406 L 452.160156 366.566406 L 429.148438 363.359375 L 422.449219 354.246094 L 411.667969 342.683594 L 408.757812 336.566406 L 401.554688 336.566406 L 401.554688 292.574219 L 415.753906 292.574219 L 415.753906 323.171875 L 430.347656 323.171875 L 430.347656 339.773438 L 444.585938 339.773438 L 444.585938 354.246094 L 459.15625 354.246094 Z M 459.15625 366.566406 " fill-opacity="1" fill-rule="nonzero"/><path fill="#00ff9f" d="M 427.835938 310.195312 L 445.316406 310.195312 L 445.316406 323.15625 L 427.835938 323.15625 Z M 427.835938 310.195312 " fill-opacity="1" fill-rule="nonzero"/><path fill="#00ff9f" d="M 418.378906 292.574219 L 430.460938 292.574219 L 430.460938 287.328125 L 445.316406 287.328125 L 445.316406 301.167969 L 456.234375 301.167969 L 456.234375 312.089844 L 470.953125 312.089844 L 470.953125 290.832031 L 460.605469 290.832031 L 460.605469 278.449219 L 418.378906 278.449219 Z M 418.378906 292.574219 " fill-opacity="1" fill-rule="nonzero"/><path fill="#ff0060" d="M 317.148438 308.882812 L 299.382812 308.882812 L 299.382812 295.261719 L 314.671875 295.261719 L 314.671875 286.3125 L 327.78125 286.3125 L 327.78125 281.359375 L 345.261719 281.359375 L 345.261719 287.191406 L 336.671875 287.191406 L 336.671875 304.808594 L 327.484375 309.476562 Z M 317.148438 308.882812 " fill-opacity="1" fill-rule="nonzero"/><path fill="#ff0060" d="M 303.890625 295.410156 L 295.371094 295.410156 L 295.371094 289.875 L 292.425781 289.875 L 292.425781 276.554688 L 299.382812 276.554688 L 299.382812 269.992188 L 305.425781 269.992188 L 305.425781 266.835938 L 313.730469 266.835938 L 313.730469 264.421875 L 318.644531 264.421875 L 326.285156 260.707031 L 326.285156 258.09375 L 332.734375 258.09375 L 332.734375 256.125 L 341.90625 256.125 L 341.90625 254.589844 L 345.261719 254.589844 L 345.261719 252.410156 L 349.769531 252.410156 L 349.769531 250.554688 L 363.648438 248.90625 L 363.648438 247.050781 L 372.273438 247.050781 L 372.273438 244.871094 L 381.335938 244.871094 L 381.335938 242.46875 L 397.503906 242.46875 L 397.503906 256.238281 L 383.527344 256.238281 L 383.527344 257.4375 L 373.042969 257.4375 L 373.042969 261.265625 L 366.382812 261.265625 L 366.382812 264.308594 L 357.417969 264.308594 L 357.417969 266.722656 L 344.964844 266.722656 L 344.964844 268.941406 L 338.628906 268.941406 L 338.628906 271.417969 L 331.421875 271.417969 L 331.421875 273.59375 L 326.285156 273.59375 L 326.285156 275.5625 L 321.046875 275.5625 L 321.046875 277.308594 L 314.933594 277.308594 L 314.933594 279.066406 L 311.429688 279.066406 L 311.429688 281.359375 L 308.707031 281.359375 L 308.707031 283.214844 L 303.839844 283.214844 Z M 303.890625 295.410156 " fill-opacity="1" fill-rule="nonzero"/><path fill="#ff0060" d="M 419.675781 266.722656 L 411.160156 266.722656 L 411.160156 249.898438 L 408.980469 249.898438 L 408.980469 238.753906 L 407.78125 238.753906 L 407.78125 200.953125 L 410.070312 200.953125 L 410.070312 187.410156 L 411.816406 187.410156 L 411.816406 173.308594 L 416.519531 173.308594 L 416.519531 169.046875 L 421.867188 169.046875 L 421.867188 164.46875 L 426.78125 164.46875 L 426.78125 161.074219 L 432.132812 161.074219 L 432.132812 157.472656 L 434.867188 157.472656 L 434.867188 152.777344 L 436.835938 152.777344 L 436.835938 148.617188 L 443.816406 148.617188 L 450.117188 142.539062 L 450.117188 138.75 L 456.234375 138.75 L 456.234375 135.257812 L 463.960938 135.257812 L 463.960938 128.847656 L 473.863281 128.847656 L 473.863281 125.503906 L 480.410156 125.503906 L 480.410156 121.566406 L 484.632812 121.566406 L 484.632812 118.074219 L 490.464844 118.074219 L 490.464844 114.71875 L 500.515625 114.71875 L 500.515625 112.242188 L 513.761719 112.242188 L 513.761719 109.617188 L 529.644531 109.617188 L 529.644531 107.734375 L 551.050781 107.734375 L 551.050781 117.640625 L 537.222656 117.640625 L 537.222656 122.878906 L 533.71875 122.878906 L 533.71875 129.429688 L 528.035156 129.429688 L 528.035156 131.621094 L 521.921875 131.621094 L 521.921875 142.253906 L 513.328125 142.253906 L 513.328125 152.59375 L 505.46875 152.59375 L 505.46875 204.160156 L 494.535156 204.160156 L 494.535156 150.402344 L 502.410156 150.402344 L 502.410156 137.152344 L 509.839844 137.152344 L 509.839844 131.324219 L 515.371094 131.324219 L 515.371094 125.070312 L 520.472656 125.070312 L 520.472656 119.238281 L 523.964844 119.238281 L 523.964844 117.046875 L 516.96875 117.046875 L 516.96875 119.386719 L 511.582031 119.386719 L 511.582031 121.417969 L 506.335938 121.417969 L 506.335938 126.816406 L 501.382812 126.816406 L 501.382812 128.996094 L 491.34375 128.996094 L 491.34375 131.472656 L 483.765625 131.472656 L 483.765625 133.367188 L 479.410156 133.367188 L 479.410156 137.734375 L 476.191406 137.734375 L 476.191406 142.539062 L 468.328125 142.539062 L 468.328125 149.101562 L 458.859375 149.101562 L 458.859375 153.757812 L 452.160156 153.757812 L 452.160156 157.980469 L 464.691406 157.980469 L 464.691406 163.378906 L 443.570312 163.378906 L 443.570312 168.761719 L 450.699219 168.761719 L 450.699219 172.835938 L 438.617188 172.835938 L 438.617188 175.3125 L 425.804688 175.3125 L 425.804688 187.222656 L 436.425781 187.222656 L 436.425781 195.421875 L 423.613281 195.421875 L 423.613281 206.339844 L 431.476562 206.339844 L 431.476562 216.246094 L 424.777344 216.246094 L 424.777344 228.925781 L 434.679688 228.925781 L 434.679688 236.351562 L 428.863281 236.351562 L 428.863281 239.410156 L 418.378906 239.410156 L 418.378906 250.628906 L 427.402344 250.628906 L 427.402344 247.125 L 435.410156 247.125 L 435.410156 244.5 L 451.726562 244.5 L 451.726562 241.589844 L 474.296875 241.589844 L 474.296875 238.976562 L 484.496094 238.976562 L 484.496094 236.636719 L 490.761719 236.636719 L 490.761719 249.75 L 484.347656 249.75 L 484.347656 254.269531 L 476.191406 254.269531 L 476.191406 256.746094 L 458.128906 256.746094 L 458.128906 254.40625 L 464.109375 254.40625 L 464.109375 251.792969 L 455.367188 251.792969 L 455.367188 254.269531 L 450.265625 254.269531 L 450.265625 256.746094 L 441.824219 256.746094 L 441.824219 255.246094 L 435.1875 255.246094 L 435.1875 256.941406 L 425.246094 256.941406 L 425.246094 258.6875 L 418.972656 258.6875 L 418.972656 264.691406 L 420.605469 264.691406 L 420.605469 266.722656 Z M 419.675781 266.722656 " fill-opacity="1" fill-rule="nonzero"/><path fill="#00e0ff" d="M 578.011719 246.617188 L 514.9375 246.617188 L 514.9375 249.675781 L 490.761719 249.675781 L 490.761719 238.097656 L 508.15625 238.097656 L 508.15625 235.261719 L 544.648438 235.261719 L 544.648438 228.269531 L 530.4375 228.269531 L 530.4375 218.871094 L 545.292969 218.871094 L 545.292969 207.503906 L 568.023438 207.503906 L 568.023438 197.894531 L 548.140625 197.894531 L 548.140625 188.5 L 570.203125 188.5 L 570.203125 176.699219 L 528.257812 176.699219 L 528.257812 169.492188 L 547.050781 169.492188 L 547.050781 160.976562 L 535.464844 160.976562 L 535.464844 150.921875 L 544.425781 150.921875 L 544.425781 145.238281 L 538.3125 145.238281 L 538.3125 139.988281 L 554.480469 139.988281 L 554.480469 130.160156 L 560.148438 130.160156 L 560.148438 122.953125 L 571.945312 122.953125 L 571.945312 114.433594 L 561.460938 114.433594 L 561.460938 108.972656 L 577.628906 108.972656 L 577.628906 104.8125 L 589.425781 104.8125 L 589.425781 101.324219 L 621.652344 101.324219 L 621.652344 103.070312 L 636.507812 103.070312 L 636.507812 104.8125 L 644.480469 104.8125 L 644.480469 106.238281 L 652.019531 106.238281 L 652.019531 111.375 L 659.445312 111.375 L 659.445312 113.667969 L 668.074219 113.667969 L 668.074219 117.925781 L 687.300781 117.925781 L 687.300781 125.019531 L 677.039062 125.019531 L 677.039062 127.546875 L 689.382812 127.546875 L 689.382812 131.695312 L 699.320312 131.695312 L 699.320312 140.644531 L 694.839844 140.644531 L 694.839844 144.148438 L 689.269531 144.148438 L 689.269531 149.722656 L 719.957031 149.722656 L 719.957031 155.613281 L 711.984375 155.613281 L 711.984375 158.5625 L 728.042969 158.5625 L 728.042969 170.261719 L 730.554688 170.261719 L 730.554688 179.546875 L 733.292969 179.546875 L 733.292969 192.980469 L 735.039062 192.980469 L 735.039062 208.160156 L 744.210938 208.160156 L 744.210938 250.121094 L 734.269531 250.121094 L 734.269531 222.585938 L 726.632812 222.585938 L 726.632812 209.90625 L 723.351562 209.90625 L 723.351562 198.761719 L 716.691406 198.761719 L 716.691406 185.007812 L 707.183594 185.007812 L 707.183594 180.191406 L 703.46875 180.191406 L 703.46875 174.074219 L 705.871094 174.074219 L 705.871094 169.816406 L 694.839844 169.816406 L 694.839844 164.578125 L 689.8125 164.578125 L 689.8125 162.066406 L 651.796875 162.066406 L 651.796875 163.15625 L 636.285156 163.15625 L 636.285156 165.445312 L 629.511719 165.445312 L 629.511719 168.179688 L 624.277344 168.179688 L 624.277344 171.785156 L 621.105469 171.785156 L 621.105469 175.722656 L 618.160156 175.722656 L 618.160156 179.214844 L 609.53125 179.214844 L 609.53125 182.703125 L 603.625 182.703125 L 603.625 187.84375 L 600.136719 187.84375 L 600.136719 192.214844 L 598.054688 192.214844 L 598.054688 199.207031 L 591.828125 199.207031 L 591.828125 209.039062 L 578.074219 209.039062 Z M 578.011719 246.617188 " fill-opacity="1" fill-rule="nonzero"/><path fill="#00ff9f" d="M 713.445312 250.121094 L 597.511719 250.121094 L 597.511719 245.675781 L 592.855469 245.675781 L 592.855469 226.730469 L 658.394531 226.730469 L 658.394531 243.929688 L 669.164062 243.929688 L 669.164062 226.730469 L 716.070312 226.730469 L 716.070312 236.054688 L 710.824219 236.054688 L 710.824219 245.378906 L 713.445312 245.378906 Z M 713.445312 250.121094 " fill-opacity="1" fill-rule="nonzero"/><path fill="#ff0060" d="M 526.515625 302.765625 L 493.300781 302.765625 L 493.300781 288.5625 L 478.234375 288.5625 L 478.234375 279.835938 L 526.515625 279.835938 Z M 526.515625 302.765625 " fill-opacity="1" fill-rule="nonzero"/><path fill="#00e0ff" d="M 652.5625 278.449219 L 652.5625 284.851562 L 640.109375 284.851562 L 640.109375 281.644531 L 624.164062 281.644531 L 624.164062 276.988281 L 566.933594 276.988281 L 566.933594 266.722656 L 628.96875 266.722656 L 628.96875 271.527344 L 644.925781 271.527344 L 644.925781 278.449219 Z M 652.5625 278.449219 " fill-opacity="1" fill-rule="nonzero"/><path fill="#00e0ff" d="M 760.265625 282.671875 L 688.390625 282.671875 L 688.390625 278.300781 L 702.589844 278.300781 L 702.589844 274.808594 L 705.648438 274.808594 L 705.648438 268.023438 L 753.273438 268.023438 L 753.273438 275.355469 L 760.265625 275.355469 Z M 760.265625 282.671875 " fill-opacity="1" fill-rule="nonzero"/><path fill="#ff0060" d="M 535.464844 284.851562 L 535.464844 304.808594 L 548.871094 304.808594 L 548.871094 345.308594 L 560.222656 345.308594 L 560.222656 348.652344 L 558.625 348.652344 L 558.625 354.667969 L 569.222656 354.667969 L 569.222656 356.523438 L 573.148438 356.523438 L 573.148438 358.382812 L 570.089844 358.382812 L 570.089844 361.21875 L 625.589844 361.21875 L 625.589844 356.414062 L 629.191406 356.414062 L 629.191406 354.011719 L 632.359375 354.011719 L 632.359375 350.621094 L 634.875 350.621094 L 634.875 348.875 L 642.078125 348.875 L 642.078125 341.121094 L 639.789062 341.121094 L 639.789062 337.507812 L 632.359375 337.507812 L 632.359375 343.191406 L 626.789062 343.191406 L 626.789062 346.683594 L 621.105469 346.683594 L 621.105469 350.394531 L 613.566406 350.394531 L 613.566406 353.132812 L 603.738281 353.132812 L 603.738281 354.332031 L 594.34375 354.332031 L 594.34375 353.132812 L 582.878906 353.132812 L 582.878906 351.164062 L 579.710938 351.164062 L 579.710938 349.097656 L 576.863281 349.097656 L 576.863281 346.792969 L 574.25 346.792969 L 574.25 342.210938 L 569.222656 342.210938 L 569.222656 340.453125 L 563.429688 340.453125 L 563.429688 299.878906 L 565.71875 299.878906 L 565.71875 297.03125 L 641.757812 297.03125 L 641.757812 300.476562 L 642.957031 300.476562 L 642.957031 338.597656 L 655.734375 338.597656 L 655.734375 309.871094 L 683.265625 309.871094 L 683.265625 337.507812 L 684.789062 337.507812 L 684.789062 342.757812 L 686.980469 342.757812 L 686.980469 345.046875 L 692.871094 345.046875 L 692.871094 346.582031 L 695.707031 346.582031 L 695.707031 300.808594 L 698.21875 300.808594 L 698.21875 298.507812 L 756.664062 298.507812 L 756.664062 335.488281 L 755.242188 335.488281 L 755.242188 338.929688 L 747.601562 338.929688 L 747.601562 347.128906 L 740.878906 347.128906 L 740.878906 348.8125 L 737.773438 348.8125 L 737.773438 352.585938 L 732.957031 352.585938 L 732.957031 353.898438 L 714.386719 353.898438 L 714.386719 358.65625 L 729.417969 358.65625 L 729.417969 361.21875 L 744.976562 361.21875 L 744.976562 358.097656 L 748.964844 358.097656 L 748.964844 356.140625 L 754.101562 356.140625 L 754.101562 352.203125 L 756.664062 352.203125 L 756.664062 349.691406 L 758.632812 349.691406 L 758.632812 339.09375 L 771.410156 339.09375 L 771.410156 304.523438 L 781.027344 304.523438 L 781.027344 292.722656 L 760.265625 292.722656 L 760.265625 288.503906 L 755.972656 288.503906 L 755.972656 286.894531 L 693.789062 286.894531 L 693.789062 290.980469 L 691.015625 290.980469 L 691.015625 295.335938 L 646.449219 295.335938 L 646.449219 287.042969 L 585.640625 287.042969 L 585.640625 284.851562 Z M 535.464844 284.851562 " fill-opacity="1" fill-rule="nonzero"/><path fill="#ff0060" d="M 552.511719 84.273438 L 571.738281 84.273438 L 571.738281 94.105469 L 552.511719 94.105469 Z M 552.511719 84.273438 " fill-opacity="1" fill-rule="nonzero"/><path fill="#b708fe" d="M 708.273438 216.246094 L 675.503906 216.246094 L 675.503906 200.519531 L 656.066406 200.519531 L 656.066406 193.738281 L 663.273438 193.738281 L 663.273438 174.296875 L 687.523438 174.296875 L 687.523438 185.21875 L 690.359375 185.21875 L 690.359375 195.273438 L 699.976562 195.273438 L 699.976562 210.785156 L 708.273438 210.785156 Z M 708.273438 216.246094 " fill-opacity="1" fill-rule="nonzero"/><path fill="#b708fe" d="M 627.65625 201.175781 L 654.457031 201.175781 L 654.457031 207.726562 L 627.65625 207.726562 Z M 627.65625 201.175781 " fill-opacity="1" fill-rule="nonzero"/><path fill="#ff0060" d="M 641.0625 177.132812 L 663.273438 177.132812 L 663.273438 183.027344 L 641.0625 183.027344 Z M 641.0625 177.132812 " fill-opacity="1" fill-rule="nonzero"/><path fill="#00e0ff" d="M 488.285156 321.410156 L 507.214844 321.410156 L 507.214844 329.570312 L 488.285156 329.570312 Z M 488.285156 321.410156 " fill-opacity="1" fill-rule="nonzero"/><path fill="#00e0ff" d="M 488.285156 338.015625 L 507.214844 338.015625 L 507.214844 349.082031 L 488.285156 349.082031 Z M 488.285156 338.015625 " fill-opacity="1" fill-rule="nonzero"/><path fill="#00e0ff" d="M 521.488281 368.90625 L 551.050781 368.90625 L 551.050781 377.066406 L 521.488281 377.066406 Z M 521.488281 368.90625 " fill-opacity="1" fill-rule="nonzero"/><path fill="#00e0ff" d="M 530.808594 380.765625 L 547.410156 380.765625 L 547.410156 389.074219 L 530.808594 389.074219 Z M 530.808594 380.765625 " fill-opacity="1" fill-rule="nonzero"/><path fill="#ff0060" d="M 490.316406 396.578125 L 508.378906 396.578125 L 508.378906 407.648438 L 490.316406 407.648438 Z M 490.316406 396.578125 " fill-opacity="1" fill-rule="nonzero"/><path fill="#ff0060" d="M 460.605469 413.480469 L 467.300781 413.480469 L 467.300781 437.078125 L 460.605469 437.078125 Z M 460.605469 413.480469 " fill-opacity="1" fill-rule="nonzero"/><path fill="#00e0ff" d="M 492.359375 456.875 L 500.800781 456.875 L 500.800781 477.265625 L 492.359375 477.265625 Z M 492.359375 456.875 " fill-opacity="1" fill-rule="nonzero"/><path fill="#b708fe" d="M 505.753906 422.207031 L 519.878906 422.207031 L 519.878906 436.335938 L 505.753906 436.335938 Z M 505.753906 422.207031 " fill-opacity="1" fill-rule="nonzero"/><path fill="#00e0ff" d="M 512.820312 446.101562 L 519.890625 446.101562 L 519.890625 458.78125 L 512.820312 458.78125 Z M 512.820312 446.101562 " fill-opacity="1" fill-rule="nonzero"/><path fill="#ff0060" d="M 530.808594 468.824219 L 539.117188 468.824219 L 539.117188 488.050781 L 530.808594 488.050781 Z M 530.808594 468.824219 " fill-opacity="1" fill-rule="nonzero"/><path fill="#ff0060" d="M 455.652344 597.886719 L 463.960938 597.886719 L 463.960938 617.398438 L 455.652344 617.398438 Z M 455.652344 597.886719 " fill-opacity="1" fill-rule="nonzero"/><path fill="#b708fe" d="M 471.089844 638.085938 L 488.855469 638.085938 L 488.855469 650.320312 L 471.089844 650.320312 Z M 471.089844 638.085938 " fill-opacity="1" fill-rule="nonzero"/><path fill="#b708fe" d="M 314.96875 529.417969 L 339.730469 529.417969 L 339.730469 537.277344 L 314.96875 537.277344 Z M 314.96875 529.417969 " fill-opacity="1" fill-rule="nonzero"/><path fill="#00e0ff" d="M 305.351562 510.484375 L 322.25 510.484375 L 322.25 517.183594 L 305.351562 517.183594 Z M 305.351562 510.484375 " fill-opacity="1" fill-rule="nonzero"/><path fill="#00e0ff" d="M 651.398438 592.933594 L 673.832031 592.933594 L 673.832031 601.375 L 651.398438 601.375 Z M 651.398438 592.933594 " fill-opacity="1" fill-rule="nonzero"/><path fill="#00e0ff" d="M 662.617188 621.769531 L 676.742188 621.769531 L 676.742188 629.929688 L 662.617188 629.929688 Z M 662.617188 621.769531 " fill-opacity="1" fill-rule="nonzero"/><path fill="#00e0ff" d="M 692.761719 585.355469 L 662.617188 585.355469 L 662.617188 573.703125 L 679.652344 573.703125 L 679.652344 563.800781 L 692.761719 563.800781 Z M 692.761719 585.355469 " fill-opacity="1" fill-rule="nonzero"/><path fill="#00ff9f" d="M 619.644531 652.363281 L 587.027344 652.363281 L 587.027344 642.742188 L 522.949219 642.742188 L 522.949219 629.929688 L 542.457031 629.929688 L 542.457031 615.355469 L 487.40625 615.355469 L 487.40625 607.640625 L 522.652344 607.640625 L 522.652344 594.605469 L 492.359375 594.605469 L 492.359375 577.492188 L 520.027344 577.492188 L 520.027344 567.007812 L 490.613281 567.007812 L 490.613281 553.894531 L 520.609375 553.894531 L 520.609375 547.480469 L 506.335938 547.480469 L 506.335938 538.738281 L 494.402344 538.738281 L 494.402344 531.164062 L 506.050781 531.164062 L 506.050781 522.71875 L 514.789062 522.71875 L 514.789062 529.417969 L 532.269531 529.417969 L 532.269531 540.484375 L 563.429688 540.484375 L 563.429688 555.925781 L 594.601562 555.925781 L 594.601562 570.496094 L 617.902344 570.496094 L 617.902344 580.105469 L 631.890625 580.105469 L 631.890625 597.15625 L 620.226562 597.15625 L 620.226562 606.328125 L 630.714844 606.328125 L 630.714844 638.085938 L 619.71875 638.085938 Z M 619.644531 652.363281 " fill-opacity="1" fill-rule="nonzero"/><path fill="#00e0ff" d="M 391.722656 624.394531 L 391.722656 640.773438 L 376.421875 640.773438 L 376.421875 656.734375 L 355.453125 656.734375 L 355.453125 646.457031 L 358.074219 646.457031 L 358.074219 644.203125 L 349.992188 644.203125 L 349.992188 650.320312 L 335.359375 650.320312 L 335.359375 632.910156 L 312.851562 632.910156 L 312.851562 620.246094 L 314.96875 620.246094 L 314.96875 607.207031 L 299.308594 607.207031 L 299.308594 590.085938 L 322.460938 590.085938 L 322.460938 585.28125 L 325.308594 585.28125 L 325.308594 579.386719 L 315.910156 579.386719 L 315.910156 571.734375 L 320.503906 571.734375 L 320.503906 573.480469 L 339.730469 573.480469 L 339.730469 568.246094 L 352.617188 568.246094 L 352.617188 575.449219 L 371.1875 575.449219 L 371.1875 579.386719 L 379.703125 579.386719 L 379.703125 587.535156 L 367.25 587.535156 L 367.25 594.605469 L 397.839844 594.605469 L 397.839844 612.484375 L 381.449219 612.484375 L 381.449219 622.859375 L 391.734375 622.859375 Z M 391.722656 624.394531 " fill-opacity="1" fill-rule="nonzero"/><path fill="#00e0ff" d="M 753.644531 441.882812 L 753.644531 432.410156 L 745.632812 432.410156 L 745.632812 408.082031 L 734.492188 408.082031 L 734.492188 394.683594 L 722.695312 394.683594 L 722.695312 387.253906 L 729.34375 387.253906 L 729.34375 358.65625 L 714.324219 353.898438 L 709.734375 352.003906 L 690.285156 352.003906 L 690.285156 356.375 L 688.390625 356.375 L 688.390625 361.21875 L 675.714844 361.21875 L 675.714844 352.003906 L 651.398438 352.003906 L 651.398438 354.183594 L 643.390625 354.183594 L 643.390625 361.21875 L 637.707031 361.21875 L 637.707031 366.566406 L 628.089844 366.566406 L 628.089844 382.527344 L 637.050781 382.527344 L 637.050781 389.074219 L 647.316406 389.074219 L 647.316406 396.578125 L 640.109375 396.578125 L 640.109375 402.113281 L 633.5625 402.113281 L 633.5625 393.804688 L 618.914062 393.804688 L 618.914062 383.03125 L 606.980469 383.03125 L 606.980469 392.9375 L 587.457031 392.9375 L 587.457031 403.128906 L 573.480469 403.128906 L 573.480469 413.480469 L 564.160156 413.480469 L 564.160156 424.398438 L 555.855469 424.398438 L 555.855469 453.53125 L 571.589844 453.53125 L 571.589844 474.804688 L 592.558594 474.804688 L 592.558594 485.574219 L 608.28125 485.574219 L 608.28125 497.523438 L 598.960938 497.523438 L 598.960938 503.925781 L 624.164062 503.925781 L 624.164062 516.167969 L 647.316406 516.167969 L 647.316406 506.117188 L 658.382812 506.117188 L 658.382812 517.617188 L 673.386719 517.617188 L 673.386719 508.589844 L 681.261719 508.589844 L 681.261719 522.71875 L 675.578125 522.71875 L 675.578125 527.820312 L 694.222656 527.820312 L 694.222656 503.207031 L 705.871094 503.207031 L 705.871094 518.347656 L 715.773438 518.347656 L 715.773438 498.253906 L 721.59375 498.253906 L 721.59375 500.582031 L 727.125 500.582031 L 727.125 488.632812 L 738.925781 488.632812 L 738.925781 480.039062 L 736.894531 480.039062 L 736.894531 474.207031 L 739.371094 474.207031 L 739.371094 467.660156 L 751.886719 467.660156 L 751.886719 451.203125 L 618.484375 451.203125 L 618.484375 455.128906 L 610.039062 455.128906 L 610.039062 451.339844 L 593.289062 451.339844 L 593.289062 441.882812 L 577.988281 441.882812 L 577.988281 421.625 L 604.355469 421.625 L 604.355469 430.082031 L 591.976562 430.082031 L 591.976562 437.066406 L 605.804688 437.066406 L 605.804688 441.882812 Z M 690.792969 374.441406 L 701.859375 374.367188 L 701.859375 363.582031 L 713.074219 363.582031 L 713.074219 375.457031 L 716.714844 375.457031 L 716.714844 379.394531 L 714.164062 379.394531 L 714.164062 381.945312 L 702.367188 381.945312 L 702.367188 396.578125 L 690.792969 396.578125 Z M 650.371094 367.011719 L 662.171875 367.011719 L 662.171875 375.53125 L 677.324219 375.53125 L 677.324219 396.863281 L 663.484375 396.863281 L 663.484375 387.105469 L 666.539062 387.105469 L 666.539062 382.527344 L 650.371094 382.527344 Z M 639.75 467.957031 L 722.90625 467.078125 L 722.90625 477.5625 L 708.632812 477.5625 L 708.632812 491.839844 L 691.449219 491.839844 L 691.449219 480.398438 L 680.082031 480.398438 L 680.082031 492.855469 L 658.53125 492.855469 L 658.53125 482.230469 L 639.75 482.230469 Z M 639.75 467.957031 " fill-opacity="1" fill-rule="nonzero"/><path fill="#00ff9f" d="M 745.78125 374.726562 L 745.78125 384.925781 L 757.433594 384.925781 L 757.433594 396.578125 L 761.800781 396.578125 L 761.800781 410.558594 L 764.128906 410.558594 L 764.128906 419.011719 L 774.035156 419.011719 L 774.035156 408.527344 L 777.523438 408.527344 L 777.523438 398.90625 L 770.828125 398.90625 L 770.828125 389.074219 L 764.710938 389.074219 L 764.710938 384.925781 L 760.339844 384.925781 L 760.339844 374.726562 Z M 745.78125 374.726562 " fill-opacity="1" fill-rule="nonzero"/><path fill="#00e0ff" d="M 793.542969 416.96875 L 793.542969 428.1875 L 788.234375 428.1875 L 788.234375 438.019531 L 810.738281 438.019531 L 810.738281 446.101562 L 802.65625 446.101562 L 802.65625 456.8125 L 828.652344 456.8125 L 828.652344 467.078125 L 793.542969 467.078125 L 793.542969 475.820312 L 833.679688 475.820312 L 833.679688 487.828125 L 820.34375 487.828125 L 820.34375 496.359375 L 852.25 496.359375 L 852.25 505.535156 L 872.5625 505.535156 L 872.5625 523.449219 L 881.511719 523.449219 L 881.511719 496.359375 L 867.3125 496.359375 L 867.3125 485.648438 L 870.816406 485.648438 L 870.816406 473.625 L 852.023438 473.625 L 852.023438 467.078125 L 861.421875 467.078125 L 861.421875 456.8125 L 848.746094 456.8125 L 848.746094 444.789062 L 836.945312 444.789062 L 836.945312 435.394531 L 826.027344 435.394531 L 826.027344 425.996094 L 813.140625 425.996094 L 813.140625 410.273438 L 804.328125 410.273438 Z M 793.542969 416.96875 " fill-opacity="1" fill-rule="nonzero"/><path fill="#b708fe" d="M 770.753906 487.183594 L 784.074219 487.183594 L 784.074219 500.507812 L 770.753906 500.507812 Z M 770.753906 487.183594 " fill-opacity="1" fill-rule="nonzero"/><path fill="#00e0ff" d="M 250.59375 664.199219 L 250.59375 674.203125 L 299.308594 674.203125 L 299.308594 686.152344 L 277.386719 686.152344 L 277.386719 699.546875 L 306.515625 699.546875 L 306.515625 689.640625 L 327.484375 689.640625 L 327.484375 698.382812 L 317 698.382812 L 317 709.75 L 334.332031 709.75 L 334.332031 702.171875 L 348.566406 702.171875 L 348.566406 709.75 L 343.21875 709.75 L 343.21875 723.800781 L 370.605469 723.800781 L 370.605469 716.746094 L 379.046875 716.746094 L 379.046875 726.648438 L 374.09375 726.648438 L 374.09375 733.929688 L 397.839844 733.929688 L 397.839844 725.484375 L 411.085938 725.484375 L 411.085938 732.183594 L 404.386719 732.183594 L 404.386719 739.464844 L 432.058594 739.464844 L 432.058594 713.824219 L 443.71875 713.824219 L 443.71875 706.839844 L 458.574219 706.839844 L 458.574219 697.515625 L 430.027344 697.515625 L 430.027344 687.898438 L 397.839844 687.898438 L 397.839844 674.785156 L 365.652344 674.785156 L 365.652344 671.589844 L 348.566406 671.589844 L 348.566406 660.226562 L 325.738281 660.226562 L 325.738281 652.363281 L 289.035156 652.363281 L 289.035156 659.0625 L 306.8125 659.0625 L 306.8125 664.296875 Z M 250.59375 664.199219 " fill-opacity="1" fill-rule="nonzero"/><path fill="#00e0ff" d="M 804.328125 218.871094 L 839.570312 218.871094 L 839.570312 234.023438 L 804.328125 234.023438 Z M 804.328125 218.871094 " fill-opacity="1" fill-rule="nonzero"/><path fill="#b708fe" d="M 829.667969 252.375 L 859.960938 252.375 L 859.960938 266.722656 L 829.667969 266.722656 Z M 829.667969 252.375 " fill-opacity="1" fill-rule="nonzero"/><path fill="#ff0060" d="M 861.421875 238.421875 L 895.789062 238.421875 L 895.789062 252.363281 L 861.421875 252.363281 Z M 861.421875 238.421875 " fill-opacity="1" fill-rule="nonzero"/><path fill="#00e0ff" d="M 837.824219 296.363281 L 927.257812 296.363281 L 927.257812 308.015625 L 837.824219 308.015625 Z M 837.824219 296.363281 " fill-opacity="1" fill-rule="nonzero"/><path fill="#001230" d="M 882.542969 324.332031 L 950.269531 324.332031 L 950.269531 335.699219 L 882.542969 335.699219 Z M 882.542969 324.332031 " fill-opacity="1" fill-rule="nonzero"/><path fill="#b708fe" d="M 824.714844 341.519531 L 866.957031 341.519531 L 866.957031 353.167969 L 824.714844 353.167969 Z M 824.714844 341.519531 " fill-opacity="1" fill-rule="nonzero"/><path fill="#ff0060" d="M 851.800781 361.21875 L 897.25 361.21875 L 897.25 374.726562 L 851.800781 374.726562 Z M 851.800781 361.21875 " fill-opacity="1" fill-rule="nonzero"/><path fill="#00ff9f" d="M 916.398438 388.132812 L 952.003906 388.132812 L 952.003906 402.695312 L 916.398438 402.695312 Z M 916.398438 388.132812 " fill-opacity="1" fill-rule="nonzero"/><path fill="#b708fe" d="M 947.050781 408.664062 L 981.714844 408.664062 L 981.714844 421.625 L 947.050781 421.625 Z M 947.050781 408.664062 " fill-opacity="1" fill-rule="nonzero"/><path fill="#00e0ff" d="M 959.878906 479.964844 L 993.660156 479.964844 L 993.660156 492.855469 L 959.878906 492.855469 Z M 959.878906 479.964844 " fill-opacity="1" fill-rule="nonzero"/><path fill="#00e0ff" d="M 586.804688 313.253906 L 575.226562 313.253906 L 575.226562 329.570312 L 577.417969 329.570312 L 577.417969 333.792969 L 581.023438 333.792969 L 581.023438 339.910156 L 584.625 339.910156 L 584.625 341.878906 L 586.804688 341.878906 L 586.804688 344.28125 L 591.285156 344.28125 L 591.285156 345.816406 L 611.390625 345.816406 L 611.390625 343.847656 L 616.414062 343.847656 L 616.414062 342.210938 L 618.160156 342.210938 L 618.160156 339.042969 L 621.761719 339.042969 L 621.761719 337.074219 L 623.507812 337.074219 L 623.507812 335.03125 L 626.675781 335.03125 L 626.675781 331.9375 L 629.847656 331.9375 L 629.847656 315.667969 L 627.988281 315.667969 L 627.988281 310.714844 C 627.988281 310.714844 622.195312 310.8125 622.308594 310.714844 C 622.417969 310.617188 622.308594 324.148438 622.308594 324.148438 L 622.308594 327.75 L 619.867188 327.75 L 619.867188 330.375 L 615.277344 330.375 L 615.277344 334.636719 L 610.808594 334.636719 L 610.808594 336.492188 L 597.945312 336.492188 L 597.945312 334.683594 L 595.46875 334.683594 L 595.46875 332.445312 L 591.753906 332.445312 L 591.753906 330.214844 L 589.042969 330.214844 L 589.042969 326.984375 L 586.804688 326.984375 Z M 586.804688 313.253906 " fill-opacity="1" fill-rule="nonzero"/><path fill="#00e0ff" d="M 707.542969 321.558594 L 701.933594 321.558594 L 701.933594 336.195312 L 703.753906 336.195312 L 703.753906 338.496094 L 706.847656 338.496094 L 706.847656 341.445312 L 709.152344 341.445312 L 709.152344 345.382812 L 728.488281 345.382812 L 728.488281 342.867188 L 731.757812 342.867188 L 731.757812 338.273438 L 735.691406 338.273438 L 735.691406 335.875 L 737.773438 335.875 L 737.773438 325.386719 L 739.839844 325.386719 L 739.839844 314.242188 L 731.757812 314.242188 L 731.757812 323.035156 L 730.121094 323.035156 L 730.121094 327.789062 L 727.929688 327.789062 L 727.929688 331.9375 L 725.207031 331.9375 L 725.207031 334.449219 L 715.15625 334.449219 L 715.15625 332.59375 L 709.152344 332.59375 L 709.152344 326.808594 L 707.542969 326.808594 Z M 707.542969 321.558594 " fill-opacity="1" fill-rule="nonzero"/><path fill="#00e0ff" d="M 384.839844 299.496094 L 384.839844 313.042969 L 317.148438 313.042969 L 317.148438 304.808594 L 324.425781 304.808594 L 324.425781 293.589844 L 359.96875 293.589844 L 359.96875 287.191406 L 371.46875 287.191406 L 371.46875 299.421875 Z M 384.839844 299.496094 " fill-opacity="1" fill-rule="nonzero"/><path fill="#00e0ff" d="M 408.683594 543.691406 L 397.839844 543.691406 L 397.839844 513.828125 L 386.625 513.828125 L 386.625 538.457031 L 373.214844 538.457031 L 373.214844 512.527344 L 375.839844 512.527344 L 375.839844 501.746094 L 359.535156 501.746094 L 359.535156 517.183594 L 348.566406 517.183594 L 348.566406 510.484375 L 331.855469 510.484375 L 331.855469 499.703125 L 354.003906 499.703125 L 354.003906 488.050781 L 327.347656 488.050781 L 327.347656 471.449219 L 344.097656 471.449219 L 344.097656 461.246094 L 322.25 461.246094 L 322.25 446.101562 L 335.0625 446.101562 L 335.0625 436.347656 L 367.90625 436.347656 L 367.90625 425.265625 L 388.949219 425.265625 L 388.949219 415.804688 L 403.523438 415.804688 L 403.523438 429.277344 L 427.835938 429.277344 L 427.835938 444.941406 L 413.710938 444.941406 L 413.710938 454.261719 L 430.460938 454.261719 L 430.460938 460.664062 L 436.574219 460.664062 L 436.574219 465.035156 L 444.660156 465.035156 L 444.660156 488.050781 L 457.695312 488.050781 L 457.695312 507.277344 L 445.316406 507.277344 L 445.316406 520.675781 L 433.816406 520.675781 L 433.816406 496.792969 L 420.988281 496.792969 L 420.988281 529.417969 L 408.757812 529.417969 Z M 408.683594 543.691406 " fill-opacity="1" fill-rule="nonzero"/><path fill="#00e0ff" d="M 463.960938 739.464844 L 458.574219 739.464844 L 458.574219 722.863281 L 469.925781 722.863281 L 469.925781 714.703125 L 479.976562 714.703125 L 479.976562 702.171875 L 501.097656 702.171875 L 501.097656 688.195312 L 527.019531 688.195312 L 527.019531 677.125 L 549.453125 677.125 L 549.453125 666.054688 L 569.546875 666.054688 L 569.546875 657.601562 L 588.1875 657.601562 L 588.1875 667.503906 L 609.457031 667.503906 L 609.457031 681.496094 L 622.777344 681.496094 L 622.777344 691.683594 L 634.21875 691.683594 L 634.21875 705.082031 L 643.824219 705.082031 L 643.824219 742.089844 L 633.636719 742.089844 L 633.636719 727.515625 L 622.777344 727.515625 L 622.777344 712.078125 L 610.039062 712.078125 L 610.039062 698.097656 L 588.488281 698.097656 L 588.488281 708.871094 L 597.808594 708.871094 L 597.808594 723.726562 L 610.039062 723.726562 L 610.039062 740.34375 L 620.523438 740.34375 L 620.523438 768.882812 L 605.667969 768.882812 L 605.667969 751.996094 L 592.558594 751.996094 L 592.558594 736.554688 L 580.328125 736.554688 L 580.328125 724.023438 L 565.757812 724.023438 L 565.757812 713.242188 L 543.039062 713.242188 L 543.039062 725.484375 L 556.433594 725.484375 L 556.433594 736.554688 L 567.800781 736.554688 L 567.800781 752.578125 L 577.121094 752.578125 L 577.121094 767.175781 L 555.136719 767.175781 L 555.136719 758.109375 L 541.578125 758.109375 L 541.578125 744.453125 L 525.859375 744.453125 L 525.859375 732.46875 L 505.753906 732.46875 L 505.753906 727.230469 L 493.523438 727.230469 L 493.523438 743.6875 L 482.75 743.6875 L 482.75 729.558594 L 465.667969 729.558594 L 465.667969 739.464844 Z M 463.960938 739.464844 " fill-opacity="1" fill-rule="nonzero"/><path fill="#ff0060" d="M 452.160156 364.238281 L 452.160156 371.925781 L 422.152344 371.925781 L 422.152344 356.957031 L 408.757812 356.957031 L 408.757812 336.566406 L 415.753906 336.566406 L 415.753906 347.339844 L 428.863281 347.339844 L 428.863281 361.03125 L 452.160156 361.03125 Z M 452.160156 364.238281 " fill-opacity="1" fill-rule="nonzero"/><path fill="#b708fe" d="M 468.476562 396.863281 L 454.488281 396.863281 L 454.488281 381.929688 L 468.476562 381.929688 L 468.476562 377.054688 L 476.339844 377.054688 L 476.339844 383.9375 L 468.761719 383.9375 Z M 468.476562 396.863281 " fill-opacity="1" fill-rule="nonzero"/><path fill="#00e0ff" d="M 480.992188 363.582031 L 499.351562 363.582031 L 499.351562 368.90625 L 485.945312 368.90625 L 485.945312 374.726562 L 476.339844 374.726562 L 476.339844 363.582031 Z M 480.992188 363.582031 " fill-opacity="1" fill-rule="nonzero"/><path fill="#ffffff" d="M 615.574219 309.761719 L 615.574219 308.449219 L 609.332031 308.449219 L 609.332031 311.753906 L 606.398438 311.753906 L 606.398438 317.488281 L 607.996094 317.488281 L 607.996094 318.527344 L 615.425781 318.527344 L 615.425781 317.191406 L 616.464844 317.191406 L 616.464844 309.761719 Z M 615.574219 309.761719 " fill-opacity="1" fill-rule="nonzero"/><path fill="#ffffff" d="M 726.679688 311.457031 L 726.679688 310.738281 L 721.171875 310.738281 L 721.171875 313.625 L 718.609375 313.625 L 718.609375 318.761719 L 719.449219 318.761719 L 719.449219 319.515625 L 725.679688 319.515625 L 725.679688 318.21875 L 727.375 318.21875 L 727.375 311.457031 Z M 726.679688 311.457031 " fill-opacity="1" fill-rule="nonzero"/><path fill="#000000" d="M 764.265625 454.261719 L 766.023438 454.261719 L 766.023438 431.394531 L 775.851562 431.394531 L 775.851562 450.398438 L 790.261719 450.398438 L 790.261719 454.695312 L 781.164062 454.695312 L 781.164062 474.804688 L 764.265625 474.804688 Z M 670.875 339.625 L 668.148438 339.625 L 668.148438 322.289062 L 670.910156 322.289062 Z M 657.253906 262.488281 L 690.171875 262.488281 L 690.171875 265.917969 L 676.011719 265.917969 L 676.011719 282.957031 L 664.945312 282.957031 L 664.945312 266.066406 L 657.292969 266.066406 Z M 604.207031 211.589844 L 610.398438 211.589844 L 610.398438 204.59375 L 612.464844 204.59375 L 612.464844 200.222656 L 615.238281 200.222656 L 615.238281 214.351562 L 604.171875 214.351562 Z M 475.894531 351.199219 L 471.523438 351.199219 L 471.523438 341.867188 L 456.964844 341.867188 L 456.964844 335.539062 L 457.695312 335.539062 L 457.695312 324.46875 L 475.894531 324.46875 Z M 509.09375 384.195312 L 498.324219 384.195312 L 498.324219 381.289062 L 509.09375 381.289062 Z M 536.480469 356.523438 L 519.59375 356.523438 L 519.59375 315.148438 L 523.085938 315.148438 L 523.085938 317.191406 L 536.480469 317.191406 Z M 554.542969 258.996094 L 554.542969 272.46875 L 538.882812 272.46875 L 538.882812 267.441406 L 488.570312 267.441406 L 488.570312 266.648438 L 496.714844 266.648438 L 496.714844 262.128906 L 503.128906 262.128906 L 503.128906 262.054688 L 527.304688 262.054688 L 527.304688 258.996094 Z M 443.855469 207.800781 L 448.804688 207.800781 L 448.804688 187.695312 L 450.984375 187.695312 L 450.984375 185.21875 L 463.082031 185.21875 L 463.082031 175.757812 L 477.058594 175.757812 L 477.058594 161.484375 L 480.695312 161.484375 L 480.695312 154.921875 L 482.15625 154.921875 L 482.15625 216.542969 L 517.835938 216.542969 L 517.835938 189.082031 L 535.75 189.082031 L 535.75 195.125 L 532.914062 195.125 L 532.914062 206.488281 L 518.058594 206.488281 L 518.058594 222.871094 L 495.773438 222.871094 L 495.773438 224.257812 L 472.105469 224.257812 L 472.105469 226.582031 L 461.917969 226.582031 L 461.917969 229.207031 L 447.0625 229.207031 L 447.0625 216.542969 L 443.855469 216.542969 Z M 389.160156 280.195312 L 389.160156 287.140625 L 383.851562 287.140625 L 383.851562 274.847656 L 378.75 274.847656 L 378.75 273.667969 L 385.410156 273.667969 L 385.410156 269.855469 L 395.894531 269.855469 L 395.894531 268.617188 L 398.78125 268.617188 L 398.78125 279.105469 L 405.984375 279.105469 L 405.984375 280.195312 Z M 323.699219 423.308594 L 337.898438 423.308594 L 337.898438 414.136719 L 354.496094 414.136719 L 354.496094 401.457031 L 380.285156 401.457031 L 380.285156 393.148438 L 401.6875 393.148438 L 401.6875 389.65625 L 413.921875 389.65625 L 413.921875 384.308594 L 442.109375 384.308594 L 442.109375 409.246094 L 448.222656 409.246094 L 448.222656 448.28125 L 442.839844 448.28125 L 442.839844 441.882812 L 440.214844 441.882812 L 440.214844 416.894531 L 415.890625 416.894531 L 415.890625 403.425781 L 376.570312 403.425781 L 376.570312 412.898438 L 355.527344 412.898438 L 355.527344 423.964844 L 323.699219 423.964844 Z M 319.550781 427.890625 L 322.683594 427.890625 L 322.683594 433.722656 L 319.550781 433.722656 Z M 593.277344 771.074219 L 589.5625 771.074219 L 589.5625 764.375 L 593.277344 764.375 Z M 639.292969 771.074219 L 632.890625 771.074219 L 632.890625 754.472656 L 644.394531 754.472656 Z M 656.203125 715.941406 L 656.203125 692.714844 L 646.585938 692.714844 L 646.585938 679.304688 L 635.15625 679.304688 L 635.15625 669.113281 L 621.824219 669.113281 L 621.824219 664.742188 L 631.964844 664.742188 L 632.039062 650.46875 L 643.09375 650.46875 L 643.09375 613.757812 L 650.222656 613.757812 L 650.222656 642.308594 L 678.785156 642.308594 Z M 688.875 609.386719 L 686.199219 609.386719 L 686.199219 597.738281 L 692.390625 597.738281 Z M 688.875 609.386719 " fill-opacity="1" fill-rule="nonzero"/><path fill="#ff0060" d="M 782.773438 400.367188 L 791.214844 400.367188 L 791.214844 407.933594 L 804.328125 407.933594 L 804.328125 416.96875 L 782.773438 416.96875 Z M 782.773438 400.367188 " fill-opacity="1" fill-rule="nonzero"/><path fill="#ff0060" d="M 999.703125 748.714844 L 1031.816406 748.714844 L 1031.816406 758.257812 L 999.703125 758.257812 Z M 999.703125 748.714844 " fill-opacity="1" fill-rule="nonzero"/><path fill="#b708fe" d="M 1014.992188 785.78125 L 1041.136719 785.78125 L 1041.136719 795.105469 L 1014.992188 795.105469 Z M 1014.992188 785.78125 " fill-opacity="1" fill-rule="nonzero"/><path fill="#00e0ff" d="M 1031.816406 710.046875 L 1056.722656 710.046875 L 1056.722656 716.820312 L 1031.816406 716.820312 Z M 1031.816406 710.046875 " fill-opacity="1" fill-rule="nonzero"/><path fill="#001230" d="M 1047.984375 667.503906 L 1079.441406 667.503906 L 1079.441406 677.695312 L 1047.984375 677.695312 Z M 1047.984375 667.503906 " fill-opacity="1" fill-rule="nonzero"/><path fill="#00e0ff" d="M 164.074219 477.28125 L 195.097656 477.28125 L 195.097656 492.210938 L 164.074219 492.210938 Z M 164.074219 477.28125 " fill-opacity="1" fill-rule="nonzero"/><path fill="#00e0ff" d="M 274.476562 354.246094 L 299.382812 354.246094 L 299.382812 369.152344 L 274.476562 369.152344 Z M 274.476562 354.246094 " fill-opacity="1" fill-rule="nonzero"/><path fill="#ff0060" d="M 327.347656 187.222656 L 357.210938 187.222656 L 357.210938 201.164062 L 327.347656 201.164062 Z M 327.347656 187.222656 " fill-opacity="1" fill-rule="nonzero"/><path fill="#b708fe" d="M 206.820312 380.765625 L 239.230469 380.765625 L 239.230469 393.445312 L 206.820312 393.445312 Z M 206.820312 380.765625 " fill-opacity="1" fill-rule="nonzero"/><path fill="#ff0060" d="M 141.652344 758.257812 L 169.039062 758.257812 L 169.039062 768.894531 L 141.652344 768.894531 Z M 141.652344 758.257812 " fill-opacity="1" fill-rule="nonzero"/><path fill="#00e0ff" d="M 169.027344 796.566406 L 195.097656 796.566406 L 195.097656 808.070312 L 169.027344 808.070312 Z M 169.027344 796.566406 " fill-opacity="1" fill-rule="nonzero"/><path fill="#00ff9f" d="M 120.671875 650.320312 L 146.890625 650.320312 L 146.890625 662.699219 L 120.671875 662.699219 Z M 120.671875 650.320312 " fill-opacity="1" fill-rule="nonzero"/><path fill="#00010d" d="M 123.011719 583.027344 L 164.085938 583.027344 L 164.085938 594.097656 L 123.011719 594.097656 Z M 123.011719 583.027344 " fill-opacity="1" fill-rule="nonzero"/><path fill="#ff0060" d="M 350.996094 431.394531 L 367.90625 431.394531 L 367.90625 441.113281 L 350.996094 441.113281 Z M 350.996094 431.394531 " fill-opacity="1" fill-rule="nonzero"/><path fill="#ff0060" d="M 394.324219 477.28125 L 420.691406 477.28125 L 420.691406 487 L 394.324219 487 Z M 394.324219 477.28125 " fill-opacity="1" fill-rule="nonzero"/><path fill="#b708fe" d="M 509.070312 590.40625 L 530.699219 590.40625 L 530.699219 600.125 L 509.070312 600.125 Z M 509.070312 590.40625 " fill-opacity="1" fill-rule="nonzero"/><path fill="#b708fe" d="M 331.460938 608.90625 L 346.710938 608.90625 L 346.710938 618.625 L 331.460938 618.625 Z M 331.460938 608.90625 " fill-opacity="1" fill-rule="nonzero"/><path fill="#ff0060" d="M 585.972656 612.171875 L 607.601562 612.171875 L 607.601562 621.890625 L 585.972656 621.890625 Z M 585.972656 612.171875 " fill-opacity="1" fill-rule="nonzero"/><path fill="#ff0060" d="M 509.070312 783.457031 L 578.433594 783.457031 L 578.433594 791.972656 L 509.070312 791.972656 Z M 509.070312 783.457031 " fill-opacity="1" fill-rule="nonzero"/><path fill="#fff42c" d="M 865.953125 729.558594 L 822.609375 729.558594 L 822.609375 723.617188 L 807.582031 723.617188 L 807.582031 713.921875 L 799.066406 713.921875 L 799.066406 701.652344 L 840.625 701.652344 L 840.625 696.105469 L 854.277344 696.105469 L 854.277344 687.003906 L 863.972656 687.003906 L 863.972656 668.394531 L 873.082031 668.394531 L 873.082031 652.769531 L 879.804688 652.769531 L 879.804688 639.710938 L 872.019531 639.710938 L 872.019531 625.84375 L 904.539062 625.84375 L 904.539062 638.917969 L 891.675781 638.917969 L 891.675781 651.1875 L 902.175781 651.1875 L 902.175781 699.871094 L 891.28125 699.871094 L 891.28125 712.535156 L 879.605469 712.535156 L 879.605469 721.449219 L 865.953125 721.449219 Z M 865.953125 729.558594 " fill-opacity="1" fill-rule="nonzero"/></svg>