<svg xmlns="http://www.w3.org/2000/svg" xmlns:xlink="http://www.w3.org/1999/xlink" width="1600" zoomAndPan="magnify" viewBox="0 0 1200 899.99999" height="1200" preserveAspectRatio="xMidYMid meet" version="1.0"><path fill="#000000" d="M 980.386719 873.621094 L 261.765625 873.621094 L 261.765625 711.675781 L 928.878906 711.675781 Z M 980.386719 873.621094 " fill-opacity="1" fill-rule="nonzero"/><path fill="#000000" d="M 1033.855469 455.460938 L 940.753906 691.382812 L 936.835938 691.382812 L 930.1875 718.960938 L 642.738281 718.960938 L 642.738281 721.375 L 457.066406 721.375 L 457.066406 712.816406 L 381 712.816406 L 381 718.425781 L 330.625 718.425781 L 330.625 712.816406 L 261.765625 712.816406 L 261.765625 692.785156 L 248.714844 692.785156 L 248.714844 685.363281 L 239.472656 685.363281 L 239.472656 680.945312 L 229.609375 680.945312 L 229.609375 669.703125 L 226.605469 669.703125 L 226.605469 662.875 L 220.386719 662.875 L 220.386719 657.457031 L 214.355469 657.457031 L 214.355469 636.558594 L 204.402344 636.558594 L 204.402344 540.582031 L 209.640625 540.582031 L 209.640625 535.675781 L 216.359375 535.675781 L 216.359375 506.621094 L 222.117188 506.621094 L 222.117188 476.894531 L 228.675781 476.894531 L 228.675781 469.53125 L 236.714844 469.53125 L 236.714844 464.023438 L 244.753906 464.023438 L 244.753906 437.253906 L 247.507812 437.253906 L 247.507812 427.417969 L 255.753906 427.417969 L 255.753906 414.761719 L 256.9375 414.761719 L 256.9375 385.628906 L 264.179688 385.628906 L 264.179688 375.382812 L 272.832031 375.382812 L 272.832031 366.960938 L 278.035156 366.960938 L 278.035156 358.3125 L 290.914062 358.3125 L 290.914062 350.085938 L 297.746094 350.085938 L 297.746094 339.441406 L 298.53125 339.441406 L 298.53125 326.378906 L 307.582031 326.378906 L 307.582031 322.78125 L 324.855469 322.78125 L 324.855469 310.125 L 355.597656 310.125 L 355.597656 296.671875 L 386.738281 296.671875 L 386.738281 291.640625 L 394.980469 291.640625 L 394.980469 285.40625 L 412.878906 285.40625 L 412.878906 280.601562 L 406.230469 280.601562 L 406.230469 258.976562 L 328.621094 258.976562 L 328.621094 255.152344 L 312.273438 255.152344 L 312.273438 242.769531 L 308.582031 242.769531 L 308.582031 237.671875 L 305.875 237.671875 L 305.875 202.664062 L 312.273438 202.664062 L 312.273438 196.632812 L 317.828125 196.632812 L 317.828125 193.71875 L 325.46875 193.71875 L 325.46875 191.511719 L 337.027344 191.511719 L 337.027344 185.707031 L 342.933594 185.707031 L 342.933594 183.882812 L 351.394531 183.882812 L 351.394531 182.472656 L 354.457031 182.472656 L 354.457031 180.46875 L 358.625 180.46875 L 358.625 180.039062 L 371.367188 178.535156 L 371.367188 175.554688 L 379.3125 175.554688 L 379.3125 173.550781 L 387.660156 173.550781 L 387.660156 171.34375 L 411.957031 171.34375 L 411.957031 133.171875 L 414.0625 133.171875 L 414.0625 120.71875 L 415.691406 120.71875 L 415.691406 107.765625 L 420.007812 107.765625 L 420.007812 103.851562 L 424.914062 103.851562 L 424.914062 99.640625 L 429.433594 99.640625 L 429.433594 96.523438 L 434.375 96.523438 L 434.375 93.199219 L 436.867188 93.199219 L 436.867188 88.898438 L 438.679688 88.898438 L 438.679688 85.074219 L 450.90625 85.074219 L 450.90625 75.992188 L 456.542969 75.992188 L 456.542969 72.78125 L 463.625 72.78125 L 463.625 66.886719 L 472.734375 66.886719 L 472.734375 63.8125 L 478.78125 63.8125 L 478.78125 60.195312 L 482.652344 60.195312 L 482.652344 56.984375 L 488.027344 56.984375 L 488.027344 53.910156 L 497.261719 53.910156 L 497.261719 51.636719 L 509.441406 51.636719 L 509.441406 49.222656 L 524.050781 49.222656 L 524.050781 47.480469 L 545.082031 47.480469 L 545.082031 25.925781 L 585.535156 25.925781 L 585.535156 41.585938 L 631.453125 41.585938 L 631.453125 43.191406 L 645.117188 43.191406 L 645.117188 44.804688 L 652.4375 44.804688 L 652.4375 46.105469 L 659.382812 46.105469 L 659.382812 50.828125 L 666.214844 50.828125 L 666.214844 52.933594 L 674.152344 52.933594 L 674.152344 56.847656 L 691.835938 56.847656 L 691.835938 65.679688 L 693.722656 65.679688 L 693.722656 69.503906 L 702.867188 69.503906 L 702.867188 86.074219 L 721.871094 86.074219 L 721.871094 94.199219 L 729.292969 94.199219 L 729.292969 104.945312 L 731.605469 104.945312 L 731.605469 113.480469 L 734.121094 113.480469 L 734.121094 125.839844 L 735.714844 125.839844 L 735.714844 139.792969 L 744.175781 139.792969 L 744.175781 194.832031 L 752.5 194.832031 L 752.5 201.570312 L 758.933594 201.570312 L 758.933594 217.527344 L 778.015625 217.527344 L 778.015625 251.148438 L 769.179688 251.148438 L 769.179688 282.914062 L 757.429688 282.914062 L 757.429688 292.65625 L 755.617188 292.65625 L 755.617188 292.917969 L 759.011719 292.917969 L 759.011719 302.292969 L 763.019531 302.292969 L 763.019531 306.097656 L 768.65625 306.097656 L 768.65625 315.132812 L 774.816406 315.132812 L 774.816406 316.476562 L 787.398438 316.476562 L 787.398438 323.441406 L 799.453125 323.441406 L 799.453125 325.582031 L 807.5625 325.582031 L 807.5625 340.035156 L 819.402344 340.035156 L 819.402344 348.683594 L 829.46875 348.683594 L 829.46875 357.3125 L 840.308594 357.3125 L 840.308594 368.375 L 851.964844 368.375 L 851.964844 383.816406 L 860.597656 383.816406 L 860.597656 404.714844 L 870.457031 404.714844 L 870.457031 455.460938 Z M 1033.855469 455.460938 " fill-opacity="1" fill-rule="nonzero"/><path fill="#00ff9f" d="M 726.175781 466.84375 L 722.859375 478.132812 L 663.496094 680.003906 L 933 680.003906 L 1017.121094 466.84375 Z M 793.351562 478.089844 L 807.617188 478.089844 L 807.617188 491.007812 L 793.351562 491.007812 Z M 720.824219 654.085938 L 692.289062 654.085938 L 689.683594 662.929688 L 678.421875 662.929688 L 685.59375 643.445312 L 720.890625 643.445312 Z M 736.089844 609.300781 L 706.953125 609.300781 L 698.121094 631.597656 L 687.667969 631.597656 L 706.953125 569 L 717.40625 569 L 707.957031 600.300781 L 738.09375 600.300781 Z M 774.667969 535.132812 L 763.28125 535.132812 L 763.28125 525.480469 L 774.667969 525.480469 Z M 784.3125 490.402344 L 744.925781 490.402344 L 741.453125 505.925781 L 773.265625 505.925781 L 773.265625 514.507812 L 738.09375 514.507812 L 735.28125 525.355469 L 747.339844 525.355469 L 747.339844 535.132812 L 731.671875 535.132812 L 726.175781 557.621094 L 710.371094 557.621094 L 736.089844 478.089844 L 784.3125 478.089844 Z M 841.652344 535.132812 L 793.351562 535.132812 L 793.351562 525.480469 L 841.652344 525.480469 Z M 843.394531 491.007812 L 825.300781 491.007812 L 825.300781 478.089844 L 843.394531 478.089844 Z M 888.195312 479.363281 L 949.28125 479.363281 L 949.28125 491.007812 L 888.195312 491.007812 Z M 966.757812 508.75 L 966.757812 516.113281 L 943.042969 516.113281 L 943.042969 508.75 Z M 919.734375 673.570312 L 898.445312 673.570312 L 898.445312 665.035156 L 922.753906 665.035156 Z M 925.871094 654.691406 L 908.292969 654.691406 L 908.292969 644.152344 L 928.878906 644.152344 Z M 937.519531 631.097656 L 926.773438 631.097656 L 926.773438 618.75 L 941.335938 618.75 Z M 945.488281 610.304688 L 926.804688 610.304688 L 926.804688 597.453125 L 949.90625 597.25 Z M 963.171875 571.949219 L 947.472656 571.949219 L 947.472656 559.292969 L 967.761719 559.292969 Z M 978.40625 535.132812 L 960.121094 535.132812 L 960.121094 525.480469 L 981.824219 525.480469 Z M 966.757812 491.007812 L 966.757812 479.363281 L 1001.316406 479.363281 L 996.691406 491.007812 Z M 966.757812 491.007812 " fill-opacity="1" fill-rule="nonzero"/><path fill="#00ff9f" d="M 726.1875 466.84375 L 710.109375 466.84375 L 647.417969 671.171875 L 655.71875 671.171875 L 714.925781 478.089844 L 722.859375 478.132812 Z M 726.1875 466.84375 " fill-opacity="1" fill-rule="nonzero"/><path fill="#00ff9f" d="M 654.113281 692.054688 L 648.613281 707.589844 L 921.214844 707.589844 L 924.960938 692.054688 Z M 654.113281 692.054688 " fill-opacity="1" fill-rule="nonzero"/><path fill="#00ff9f" d="M 639.46875 692.054688 L 643.820312 680.003906 L 512.390625 680.003906 L 512.390625 701.160156 L 468.453125 701.160156 L 468.453125 709.992188 L 633.21875 709.992188 L 636.191406 699.816406 L 619.816406 699.816406 L 619.816406 692.054688 Z M 577.496094 699.816406 L 540.253906 699.816406 L 540.253906 692.054688 L 577.496094 692.054688 Z M 605.359375 699.816406 L 589.007812 699.816406 L 589.007812 692.054688 L 605.359375 692.054688 Z M 605.359375 699.816406 " fill-opacity="1" fill-rule="nonzero"/><path fill="#00ff9f" d="M 512.390625 680.003906 L 458.195312 680.003906 L 454.527344 701.433594 L 466.050781 701.433594 L 467.121094 692.054688 L 512.390625 692.054688 Z M 512.390625 680.003906 " fill-opacity="1" fill-rule="nonzero"/><path fill="#00e0ff" d="M 342.011719 698.210938 L 369.613281 698.210938 L 369.613281 707.042969 L 342.011719 707.042969 Z M 342.011719 698.210938 " fill-opacity="1" fill-rule="nonzero"/><path fill="#ff0060" d="M 381.125 672.777344 L 406.570312 672.777344 L 406.570312 682.152344 L 381.125 682.152344 Z M 381.125 672.777344 " fill-opacity="1" fill-rule="nonzero"/><path fill="#ff0060" d="M 294.054688 624.304688 L 312.808594 624.304688 L 312.808594 634.476562 L 294.054688 634.476562 Z M 294.054688 624.304688 " fill-opacity="1" fill-rule="nonzero"/><path fill="#00e0ff" d="M 327.269531 649.214844 L 342 649.214844 L 342 658.320312 L 327.269531 658.320312 Z M 327.269531 649.214844 " fill-opacity="1" fill-rule="nonzero"/><path fill="#ff0060" d="M 410.328125 651.890625 L 425.0625 651.890625 L 425.0625 661.804688 L 410.328125 661.804688 Z M 410.328125 651.890625 " fill-opacity="1" fill-rule="nonzero"/><path fill="#00e0ff" d="M 300.75 515.851562 L 318.433594 515.851562 L 318.433594 524.683594 L 300.75 524.683594 Z M 300.75 515.851562 " fill-opacity="1" fill-rule="nonzero"/><path fill="#b708fe" d="M 273.152344 690.722656 L 296.992188 690.722656 L 296.992188 701.433594 L 273.152344 701.433594 Z M 273.152344 690.722656 " fill-opacity="1" fill-rule="nonzero"/><path fill="#b708fe" d="M 254.671875 589.226562 L 278.785156 589.226562 L 278.785156 600.207031 L 254.671875 600.207031 Z M 254.671875 589.226562 " fill-opacity="1" fill-rule="nonzero"/><path fill="#b708fe" d="M 273.152344 681.414062 L 273.152344 674.378906 L 268.128906 674.378906 L 268.128906 668.960938 L 259.488281 668.960938 L 259.488281 662.738281 L 241.007812 662.738281 L 241.007812 669.566406 L 250.855469 669.566406 L 250.855469 673.980469 L 260.089844 673.980469 L 260.089844 681.414062 Z M 273.152344 681.414062 " fill-opacity="1" fill-rule="nonzero"/><path fill="#ff0060" d="M 246.632812 658.320312 L 246.632812 650.082031 L 241.007812 650.082031 L 241.007812 642.046875 L 234.175781 642.046875 L 234.175781 629.390625 L 225.738281 629.390625 L 225.738281 646.0625 L 231.761719 646.0625 L 231.761719 651.492188 L 237.992188 651.492188 L 237.992188 658.320312 Z M 246.632812 658.320312 " fill-opacity="1" fill-rule="nonzero"/><path fill="#ff0060" d="M 227.949219 625.179688 L 227.949219 617.042969 L 224.226562 617.042969 L 224.226562 601.78125 L 231.96875 601.78125 L 231.96875 594.710938 L 221.617188 594.710938 L 221.617188 576.273438 L 229.953125 576.273438 L 229.953125 559.101562 L 225.328125 559.101562 L 225.328125 553.875 L 232.671875 553.875 L 232.671875 547.046875 L 221.015625 547.046875 L 221.015625 551.964844 L 215.789062 551.964844 L 215.789062 625.179688 Z M 227.949219 625.179688 " fill-opacity="1" fill-rule="nonzero"/><path fill="#b708fe" d="M 237.386719 533.128906 L 239.9375 533.128906 L 239.9375 524.683594 L 249.308594 524.683594 L 249.308594 517.992188 L 227.742188 517.992188 L 227.742188 536.066406 L 237.261719 536.066406 Z M 237.386719 533.128906 " fill-opacity="1" fill-rule="nonzero"/><path fill="#b708fe" d="M 246.097656 499.246094 L 256.140625 499.246094 L 256.140625 475.414062 L 248.101562 475.414062 L 248.101562 480.898438 L 240.074219 480.898438 L 240.074219 488.261719 L 233.503906 488.261719 L 233.503906 509.421875 L 246.097656 509.421875 Z M 246.097656 499.246094 " fill-opacity="1" fill-rule="nonzero"/><path fill="#b708fe" d="M 260.695312 472.933594 L 271.957031 472.933594 L 271.957031 457.464844 L 265.523438 457.464844 L 265.523438 443.808594 L 274.359375 443.808594 L 274.359375 433.566406 L 284.207031 433.566406 L 284.207031 426.144531 L 267.128906 426.144531 L 267.128906 438.789062 L 258.894531 438.789062 L 258.894531 448.632812 L 256.140625 448.632812 L 256.140625 461.6875 L 260.695312 461.6875 Z M 260.695312 472.933594 " fill-opacity="1" fill-rule="nonzero"/><path fill="#ff0060" d="M 309.117188 361.464844 L 302.289062 361.464844 L 302.289062 369.707031 L 289.433594 369.707031 L 289.433594 378.34375 L 284.207031 378.34375 L 284.207031 386.777344 L 275.566406 386.777344 L 275.566406 397.019531 L 268.335938 397.019531 L 268.335938 412.28125 L 278.785156 412.28125 L 278.785156 400.628906 L 289.832031 400.628906 L 289.832031 392 L 294.851562 392 L 294.851562 384.160156 L 302.890625 384.160156 L 302.890625 376.125 L 310.324219 376.125 L 310.324219 367.292969 L 316.964844 367.292969 L 316.964844 360.464844 L 330.820312 360.464844 L 330.820312 350.824219 L 309.117188 350.824219 Z M 309.117188 361.464844 " fill-opacity="1" fill-rule="nonzero"/><path fill="#ff0060" d="M 336.25 334.152344 L 318.96875 334.152344 L 318.96875 337.769531 L 309.925781 337.769531 L 309.925781 344.792969 L 321.175781 344.792969 L 321.164062 341.789062 L 334.632812 341.789062 L 334.632812 337.566406 L 347.707031 337.566406 L 347.707031 329.132812 L 362.972656 329.132812 L 362.972656 321.496094 L 336.25 321.496094 Z M 336.25 334.152344 " fill-opacity="1" fill-rule="nonzero"/><path fill="#ff0060" d="M 366.992188 308.042969 L 386.679688 308.042969 L 386.679688 317.476562 L 366.992188 317.476562 Z M 366.992188 308.042969 " fill-opacity="1" fill-rule="nonzero"/><path fill="#ff0060" d="M 406.367188 296.796875 L 406.367188 303.023438 L 398.132812 303.023438 L 398.132812 309.851562 L 406.367188 309.851562 L 406.367188 306.640625 L 417.625 306.640625 L 417.625 296.796875 Z M 406.367188 296.796875 " fill-opacity="1" fill-rule="nonzero"/><path fill="#00ff9f" d="M 470.605469 296.796875 L 464.171875 296.796875 L 443.007812 293.851562 L 436.847656 285.460938 L 426.929688 274.832031 L 424.253906 269.210938 L 417.625 269.210938 L 417.625 228.773438 L 430.6875 228.773438 L 430.6875 256.894531 L 444.109375 256.894531 L 444.109375 272.15625 L 457.203125 272.15625 L 457.203125 285.460938 L 470.605469 285.460938 Z M 470.605469 296.796875 " fill-opacity="1" fill-rule="nonzero"/><path fill="#00ff9f" d="M 441.800781 244.980469 L 457.875 244.980469 L 457.875 256.894531 L 441.800781 256.894531 Z M 441.800781 244.980469 " fill-opacity="1" fill-rule="nonzero"/><path fill="#00ff9f" d="M 433.101562 228.773438 L 444.214844 228.773438 L 444.214844 223.957031 L 457.875 223.957031 L 457.875 236.671875 L 467.917969 236.671875 L 467.917969 246.71875 L 481.457031 246.71875 L 481.457031 227.167969 L 471.9375 227.167969 L 471.9375 215.785156 L 433.101562 215.785156 Z M 433.101562 228.773438 " fill-opacity="1" fill-rule="nonzero"/><path fill="#ff0060" d="M 339.996094 243.773438 L 323.660156 243.773438 L 323.660156 231.253906 L 337.71875 231.253906 L 337.71875 223.011719 L 349.777344 223.011719 L 349.777344 218.460938 L 365.855469 218.460938 L 365.855469 223.820312 L 357.953125 223.820312 L 357.953125 240.027344 L 349.503906 244.308594 Z M 339.996094 243.773438 " fill-opacity="1" fill-rule="nonzero"/><path fill="#ff0060" d="M 327.804688 231.390625 L 319.96875 231.390625 L 319.96875 226.300781 L 317.261719 226.300781 L 317.261719 214.042969 L 323.660156 214.042969 L 323.660156 208.023438 L 329.214844 208.023438 L 329.214844 205.109375 L 336.855469 205.109375 L 336.855469 202.902344 L 341.375 202.902344 L 348.398438 199.488281 L 348.398438 197.074219 L 354.332031 197.074219 L 354.332031 195.265625 L 362.769531 195.265625 L 362.769531 193.867188 L 365.855469 193.867188 L 365.855469 191.851562 L 370 191.851562 L 370 190.144531 L 382.761719 188.640625 L 382.761719 186.933594 L 390.699219 186.933594 L 390.699219 184.921875 L 399.035156 184.921875 L 399.035156 182.710938 L 413.902344 182.710938 L 413.902344 195.367188 L 401.050781 195.367188 L 401.050781 196.472656 L 391.40625 196.472656 L 391.40625 199.988281 L 385.28125 199.988281 L 385.28125 202.800781 L 377.035156 202.800781 L 377.035156 205.007812 L 365.582031 205.007812 L 365.582031 207.058594 L 359.753906 207.058594 L 359.753906 209.332031 L 353.125 209.332031 L 353.125 211.335938 L 348.398438 211.335938 L 348.398438 213.144531 L 343.585938 213.144531 L 343.585938 214.75 L 337.960938 214.75 L 337.960938 216.355469 L 334.738281 216.355469 L 334.738281 218.460938 L 332.230469 218.460938 L 332.230469 220.167969 L 327.757812 220.167969 Z M 327.804688 231.390625 " fill-opacity="1" fill-rule="nonzero"/><path fill="#ff0060" d="M 434.296875 205.007812 L 426.460938 205.007812 L 426.460938 189.542969 L 424.457031 189.542969 L 424.457031 179.296875 L 423.355469 179.296875 L 423.355469 144.550781 L 425.460938 144.550781 L 425.460938 132.101562 L 427.066406 132.101562 L 427.066406 119.148438 L 431.390625 119.148438 L 431.390625 115.234375 L 436.3125 115.234375 L 436.3125 111.011719 L 440.832031 111.011719 L 440.832031 107.902344 L 445.75 107.902344 L 445.75 104.589844 L 448.265625 104.589844 L 448.265625 100.265625 L 450.078125 100.265625 L 450.078125 96.453125 L 456.5 96.453125 L 462.292969 90.867188 L 462.292969 87.382812 L 467.917969 87.382812 L 467.917969 84.164062 L 475.023438 84.164062 L 475.023438 78.277344 L 484.132812 78.277344 L 484.132812 75.195312 L 490.15625 75.195312 L 490.15625 71.585938 L 494.039062 71.585938 L 494.039062 68.367188 L 499.402344 68.367188 L 499.402344 65.292969 L 508.644531 65.292969 L 508.644531 63.015625 L 520.828125 63.015625 L 520.828125 60.601562 L 535.4375 60.601562 L 535.4375 58.863281 L 555.125 58.863281 L 555.125 67.96875 L 542.40625 67.96875 L 542.40625 72.78125 L 539.183594 72.78125 L 539.183594 78.8125 L 533.957031 78.8125 L 533.957031 80.816406 L 528.332031 80.816406 L 528.332031 90.59375 L 520.429688 90.59375 L 520.429688 100.097656 L 513.199219 100.097656 L 513.199219 147.5 L 503.148438 147.5 L 503.148438 98.09375 L 510.386719 98.09375 L 510.386719 85.902344 L 517.21875 85.902344 L 517.21875 80.554688 L 522.308594 80.554688 L 522.308594 74.796875 L 527 74.796875 L 527 69.433594 L 530.210938 69.433594 L 530.210938 67.433594 L 523.777344 67.433594 L 523.777344 69.570312 L 518.824219 69.570312 L 518.824219 71.449219 L 513.996094 71.449219 L 513.996094 76.402344 L 509.441406 76.402344 L 509.441406 78.414062 L 500.210938 78.414062 L 500.210938 80.691406 L 493.242188 80.691406 L 493.242188 82.433594 L 489.234375 82.433594 L 489.234375 86.4375 L 486.273438 86.4375 L 486.273438 90.867188 L 479.042969 90.867188 L 479.042969 96.886719 L 470.332031 96.886719 L 470.332031 101.175781 L 464.171875 101.175781 L 464.171875 105.058594 L 475.695312 105.058594 L 475.695312 110.007812 L 456.269531 110.007812 L 456.269531 114.960938 L 462.828125 114.960938 L 462.828125 118.714844 L 451.714844 118.714844 L 451.714844 120.992188 L 439.933594 120.992188 L 439.933594 131.941406 L 449.699219 131.941406 L 449.699219 139.464844 L 437.917969 139.464844 L 437.917969 149.511719 L 445.148438 149.511719 L 445.148438 158.617188 L 438.988281 158.617188 L 438.988281 170.261719 L 448.09375 170.261719 L 448.09375 177.089844 L 442.746094 177.089844 L 442.746094 179.902344 L 433.101562 179.902344 L 433.101562 190.210938 L 441.402344 190.210938 L 441.402344 187.003906 L 448.765625 187.003906 L 448.765625 184.589844 L 463.773438 184.589844 L 463.773438 181.914062 L 484.53125 181.914062 L 484.53125 179.503906 L 493.914062 179.503906 L 493.914062 177.363281 L 499.675781 177.363281 L 499.675781 189.414062 L 493.777344 189.414062 L 493.777344 193.558594 L 486.273438 193.558594 L 486.273438 195.835938 L 469.660156 195.835938 L 469.660156 193.695312 L 475.160156 193.695312 L 475.160156 191.28125 L 467.121094 191.28125 L 467.121094 193.558594 L 462.429688 193.558594 L 462.429688 195.835938 L 454.664062 195.835938 L 454.664062 194.46875 L 448.5625 194.46875 L 448.5625 196.015625 L 439.417969 196.015625 L 439.417969 197.632812 L 433.648438 197.632812 L 433.648438 203.152344 L 435.148438 203.152344 L 435.148438 205.007812 Z M 434.296875 205.007812 " fill-opacity="1" fill-rule="nonzero"/><path fill="#00e0ff" d="M 579.921875 186.535156 L 521.910156 186.535156 L 521.910156 189.347656 L 499.675781 189.347656 L 499.675781 178.695312 L 515.671875 178.695312 L 515.671875 176.089844 L 549.238281 176.089844 L 549.238281 169.65625 L 536.164062 169.65625 L 536.164062 161.019531 L 549.828125 161.019531 L 549.828125 150.582031 L 570.734375 150.582031 L 570.734375 141.738281 L 552.449219 141.738281 L 552.449219 133.101562 L 572.738281 133.101562 L 572.738281 122.265625 L 534.160156 122.265625 L 534.160156 115.632812 L 551.445312 115.632812 L 551.445312 107.800781 L 540.789062 107.800781 L 540.789062 98.558594 L 549.03125 98.558594 L 549.03125 93.335938 L 543.40625 93.335938 L 543.40625 88.523438 L 558.277344 88.523438 L 558.277344 79.484375 L 563.492188 79.484375 L 563.492188 72.851562 L 574.34375 72.851562 L 574.34375 65.019531 L 564.699219 65.019531 L 564.699219 60 L 579.570312 60 L 579.570312 56.1875 L 590.417969 56.1875 L 590.417969 52.964844 L 620.058594 52.964844 L 620.058594 54.570312 L 633.71875 54.570312 L 633.71875 56.1875 L 641.054688 56.1875 L 641.054688 57.484375 L 647.988281 57.484375 L 647.988281 62.207031 L 654.820312 62.207031 L 654.820312 64.3125 L 662.753906 64.3125 L 662.753906 68.230469 L 680.4375 68.230469 L 680.4375 74.761719 L 671 74.761719 L 671 77.070312 L 682.351562 77.070312 L 682.351562 80.882812 L 691.492188 80.882812 L 691.492188 89.125 L 687.371094 89.125 L 687.371094 92.335938 L 682.246094 92.335938 L 682.246094 97.457031 L 710.472656 97.457031 L 710.472656 102.882812 L 703.140625 102.882812 L 703.140625 105.59375 L 717.90625 105.59375 L 717.90625 116.335938 L 720.21875 116.335938 L 720.21875 124.875 L 722.734375 124.875 L 722.734375 137.222656 L 724.339844 137.222656 L 724.339844 151.1875 L 732.777344 151.1875 L 732.777344 189.746094 L 723.636719 189.746094 L 723.636719 164.433594 L 716.609375 164.433594 L 716.609375 152.792969 L 713.59375 152.792969 L 713.59375 142.546875 L 707.46875 142.546875 L 707.46875 129.890625 L 698.722656 129.890625 L 698.722656 125.476562 L 695.308594 125.476562 L 695.308594 119.855469 L 697.515625 119.855469 L 697.515625 115.9375 L 687.371094 115.9375 L 687.371094 111.113281 L 682.75 111.113281 L 682.75 108.804688 L 647.78125 108.804688 L 647.78125 109.804688 L 633.515625 109.804688 L 633.515625 111.921875 L 627.289062 111.921875 L 627.289062 114.425781 L 622.472656 114.425781 L 622.472656 117.738281 L 619.554688 117.738281 L 619.554688 121.355469 L 616.847656 121.355469 L 616.847656 124.566406 L 608.910156 124.566406 L 608.910156 127.785156 L 603.480469 127.785156 L 603.480469 132.511719 L 600.269531 132.511719 L 600.269531 136.515625 L 598.355469 136.515625 L 598.355469 142.945312 L 592.628906 142.945312 L 592.628906 151.984375 L 579.980469 151.984375 Z M 579.921875 186.535156 " fill-opacity="1" fill-rule="nonzero"/><path fill="#00ff9f" d="M 704.484375 189.746094 L 597.855469 189.746094 L 597.855469 185.660156 L 593.574219 185.660156 L 593.574219 168.257812 L 653.851562 168.257812 L 653.851562 184.054688 L 663.757812 184.054688 L 663.757812 168.257812 L 706.898438 168.257812 L 706.898438 176.828125 L 702.070312 176.828125 L 702.070312 185.398438 L 704.484375 185.398438 Z M 704.484375 189.746094 " fill-opacity="1" fill-rule="nonzero"/><path fill="#ff0060" d="M 532.554688 238.148438 L 502.007812 238.148438 L 502.007812 225.097656 L 488.152344 225.097656 L 488.152344 217.0625 L 532.554688 217.0625 Z M 532.554688 238.148438 " fill-opacity="1" fill-rule="nonzero"/><path fill="#00e0ff" d="M 648.488281 215.785156 L 648.488281 221.679688 L 637.035156 221.679688 L 637.035156 218.734375 L 622.367188 218.734375 L 622.367188 214.453125 L 569.730469 214.453125 L 569.730469 205.007812 L 626.785156 205.007812 L 626.785156 209.425781 L 641.464844 209.425781 L 641.464844 215.785156 Z M 648.488281 215.785156 " fill-opacity="1" fill-rule="nonzero"/><path fill="#00e0ff" d="M 747.546875 219.667969 L 681.4375 219.667969 L 681.4375 215.648438 L 694.5 215.648438 L 694.5 212.441406 L 697.3125 212.441406 L 697.3125 206.214844 L 741.113281 206.214844 L 741.113281 212.941406 L 747.546875 212.941406 Z M 747.546875 219.667969 " fill-opacity="1" fill-rule="nonzero"/><path fill="#ff0060" d="M 540.789062 221.679688 L 540.789062 240.027344 L 553.121094 240.027344 L 553.121094 277.246094 L 563.558594 277.246094 L 563.558594 280.328125 L 562.089844 280.328125 L 562.089844 285.847656 L 571.839844 285.847656 L 571.839844 287.554688 L 575.449219 287.554688 L 575.449219 289.261719 L 572.636719 289.261719 L 572.636719 291.871094 L 623.679688 291.871094 L 623.679688 287.453125 L 626.992188 287.453125 L 626.992188 285.246094 L 629.90625 285.246094 L 629.90625 282.136719 L 632.21875 282.136719 L 632.21875 280.523438 L 638.84375 280.523438 L 638.84375 273.398438 L 636.738281 273.398438 L 636.738281 270.085938 L 629.90625 270.085938 L 629.90625 275.308594 L 624.78125 275.308594 L 624.78125 278.519531 L 619.554688 278.519531 L 619.554688 281.933594 L 612.621094 281.933594 L 612.621094 284.449219 L 603.582031 284.449219 L 603.582031 285.554688 L 594.941406 285.554688 L 594.941406 284.449219 L 584.398438 284.449219 L 584.398438 282.640625 L 581.480469 282.640625 L 581.480469 280.726562 L 578.863281 280.726562 L 578.863281 278.621094 L 576.460938 278.621094 L 576.460938 274.398438 L 571.839844 274.398438 L 571.839844 272.792969 L 566.507812 272.792969 L 566.507812 235.488281 L 568.617188 235.488281 L 568.617188 232.878906 L 638.546875 232.878906 L 638.546875 236.042969 L 639.652344 236.042969 L 639.652344 271.085938 L 651.402344 271.085938 L 651.402344 244.671875 L 676.726562 244.671875 L 676.726562 270.085938 L 678.125 270.085938 L 678.125 274.898438 L 680.140625 274.898438 L 680.140625 277.015625 L 685.5625 277.015625 L 685.5625 278.417969 L 688.167969 278.417969 L 688.167969 236.339844 L 690.480469 236.339844 L 690.480469 234.234375 L 744.234375 234.234375 L 744.234375 268.230469 L 742.921875 268.230469 L 742.921875 271.382812 L 735.898438 271.382812 L 735.898438 278.917969 L 729.714844 278.917969 L 729.714844 280.476562 L 726.859375 280.476562 L 726.859375 283.9375 L 722.429688 283.9375 L 722.429688 285.144531 L 705.347656 285.144531 L 705.347656 289.511719 L 719.171875 289.511719 L 719.171875 291.871094 L 733.484375 291.871094 L 733.484375 289.011719 L 737.152344 289.011719 L 737.152344 287.203125 L 741.875 287.203125 L 741.875 283.59375 L 744.234375 283.59375 L 744.234375 281.285156 L 746.042969 281.285156 L 746.042969 271.542969 L 757.792969 271.542969 L 757.792969 239.753906 L 766.640625 239.753906 L 766.640625 228.910156 L 747.546875 228.910156 L 747.546875 225.027344 L 743.59375 225.027344 L 743.59375 223.558594 L 686.402344 223.558594 L 686.402344 227.304688 L 683.851562 227.304688 L 683.851562 231.320312 L 642.863281 231.320312 L 642.863281 223.683594 L 586.9375 223.683594 L 586.9375 221.679688 Z M 540.789062 221.679688 " fill-opacity="1" fill-rule="nonzero"/><path fill="#ff0060" d="M 556.46875 37.304688 L 574.148438 37.304688 L 574.148438 46.34375 L 556.46875 46.34375 Z M 556.46875 37.304688 " fill-opacity="1" fill-rule="nonzero"/><path fill="#b708fe" d="M 699.726562 158.617188 L 669.585938 158.617188 L 669.585938 144.152344 L 651.710938 144.152344 L 651.710938 137.925781 L 658.335938 137.925781 L 658.335938 120.046875 L 680.640625 120.046875 L 680.640625 130.097656 L 683.25 130.097656 L 683.25 139.339844 L 692.097656 139.339844 L 692.097656 153.585938 L 699.726562 153.585938 Z M 699.726562 158.617188 " fill-opacity="1" fill-rule="nonzero"/><path fill="#b708fe" d="M 625.578125 144.757812 L 650.230469 144.757812 L 650.230469 150.777344 L 625.578125 150.777344 Z M 625.578125 144.757812 " fill-opacity="1" fill-rule="nonzero"/><path fill="#ff0060" d="M 637.910156 122.664062 L 658.335938 122.664062 L 658.335938 128.082031 L 637.910156 128.082031 Z M 637.910156 122.664062 " fill-opacity="1" fill-rule="nonzero"/><path fill="#00e0ff" d="M 497.398438 255.289062 L 514.804688 255.289062 L 514.804688 262.789062 L 497.398438 262.789062 Z M 497.398438 255.289062 " fill-opacity="1" fill-rule="nonzero"/><path fill="#00e0ff" d="M 497.398438 270.550781 L 514.804688 270.550781 L 514.804688 280.726562 L 497.398438 280.726562 Z M 497.398438 270.550781 " fill-opacity="1" fill-rule="nonzero"/><path fill="#00e0ff" d="M 527.933594 298.9375 L 555.125 298.9375 L 555.125 306.4375 L 527.933594 306.4375 Z M 527.933594 298.9375 " fill-opacity="1" fill-rule="nonzero"/><path fill="#00e0ff" d="M 536.507812 309.851562 L 551.777344 309.851562 L 551.777344 317.488281 L 536.507812 317.488281 Z M 536.507812 309.851562 " fill-opacity="1" fill-rule="nonzero"/><path fill="#ff0060" d="M 499.265625 324.375 L 515.875 324.375 L 515.875 334.550781 L 499.265625 334.550781 Z M 499.265625 324.375 " fill-opacity="1" fill-rule="nonzero"/><path fill="#ff0060" d="M 471.9375 339.910156 L 478.097656 339.910156 L 478.097656 361.601562 L 471.9375 361.601562 Z M 471.9375 339.910156 " fill-opacity="1" fill-rule="nonzero"/><path fill="#00e0ff" d="M 501.144531 379.8125 L 508.90625 379.8125 L 508.90625 398.558594 L 501.144531 398.558594 Z M 501.144531 379.8125 " fill-opacity="1" fill-rule="nonzero"/><path fill="#b708fe" d="M 513.460938 347.945312 L 526.453125 347.945312 L 526.453125 360.929688 L 513.460938 360.929688 Z M 513.460938 347.945312 " fill-opacity="1" fill-rule="nonzero"/><path fill="#00e0ff" d="M 519.964844 369.898438 L 526.464844 369.898438 L 526.464844 381.554688 L 519.964844 381.554688 Z M 519.964844 369.898438 " fill-opacity="1" fill-rule="nonzero"/><path fill="#ff0060" d="M 536.507812 390.792969 L 544.148438 390.792969 L 544.148438 408.46875 L 536.507812 408.46875 Z M 536.507812 390.792969 " fill-opacity="1" fill-rule="nonzero"/><path fill="#ff0060" d="M 467.382812 509.421875 L 475.023438 509.421875 L 475.023438 527.359375 L 467.382812 527.359375 Z M 467.382812 509.421875 " fill-opacity="1" fill-rule="nonzero"/><path fill="#b708fe" d="M 481.582031 546.375 L 497.921875 546.375 L 497.921875 557.621094 L 481.582031 557.621094 Z M 481.582031 546.375 " fill-opacity="1" fill-rule="nonzero"/><path fill="#b708fe" d="M 337.992188 446.496094 L 360.765625 446.496094 L 360.765625 453.722656 L 337.992188 453.722656 Z M 337.992188 446.496094 " fill-opacity="1" fill-rule="nonzero"/><path fill="#00e0ff" d="M 329.148438 429.082031 L 344.6875 429.082031 L 344.6875 435.238281 L 329.148438 435.238281 Z M 329.148438 429.082031 " fill-opacity="1" fill-rule="nonzero"/><path fill="#00e0ff" d="M 647.417969 504.867188 L 668.050781 504.867188 L 668.050781 512.628906 L 647.417969 512.628906 Z M 647.417969 504.867188 " fill-opacity="1" fill-rule="nonzero"/><path fill="#00e0ff" d="M 657.734375 531.386719 L 670.726562 531.386719 L 670.726562 538.886719 L 657.734375 538.886719 Z M 657.734375 531.386719 " fill-opacity="1" fill-rule="nonzero"/><path fill="#00e0ff" d="M 685.457031 497.902344 L 657.734375 497.902344 L 657.734375 487.195312 L 673.402344 487.195312 L 673.402344 478.089844 L 685.457031 478.089844 Z M 685.457031 497.902344 " fill-opacity="1" fill-rule="nonzero"/><path fill="#00ff9f" d="M 618.214844 559.5 L 588.210938 559.5 L 588.210938 550.667969 L 529.277344 550.667969 L 529.277344 538.875 L 547.222656 538.875 L 547.222656 525.492188 L 496.589844 525.492188 L 496.589844 518.390625 L 529.003906 518.390625 L 529.003906 506.40625 L 501.144531 506.40625 L 501.144531 490.675781 L 526.589844 490.675781 L 526.589844 481.035156 L 499.539062 481.035156 L 499.539062 468.984375 L 527.125 468.984375 L 527.125 463.101562 L 513.996094 463.101562 L 513.996094 455.066406 L 503.019531 455.066406 L 503.019531 448.097656 L 513.734375 448.097656 L 513.734375 440.335938 L 521.773438 440.335938 L 521.773438 446.496094 L 537.851562 446.496094 L 537.851562 456.667969 L 566.507812 456.667969 L 566.507812 470.863281 L 595.179688 470.863281 L 595.179688 484.246094 L 616.609375 484.246094 L 616.609375 493.089844 L 629.472656 493.089844 L 629.472656 508.75 L 618.746094 508.75 L 618.746094 517.195312 L 628.390625 517.195312 L 628.390625 546.375 L 618.28125 546.375 Z M 618.214844 559.5 " fill-opacity="1" fill-rule="nonzero"/><path fill="#00e0ff" d="M 408.585938 533.789062 L 408.585938 548.855469 L 394.511719 548.855469 L 394.511719 563.515625 L 375.226562 563.515625 L 375.226562 554.082031 L 377.640625 554.082031 L 377.640625 552 L 370.203125 552 L 370.203125 557.621094 L 356.746094 557.621094 L 356.746094 541.628906 L 336.046875 541.628906 L 336.046875 529.976562 L 337.992188 529.976562 L 337.992188 517.992188 L 323.589844 517.992188 L 323.589844 502.261719 L 344.882812 502.261719 L 344.882812 497.847656 L 347.5 497.847656 L 347.5 492.417969 L 338.859375 492.417969 L 338.859375 485.382812 L 343.082031 485.382812 L 343.082031 487 L 360.765625 487 L 360.765625 482.175781 L 372.617188 482.175781 L 372.617188 488.796875 L 389.695312 488.796875 L 389.695312 492.417969 L 397.53125 492.417969 L 397.53125 499.917969 L 386.078125 499.917969 L 386.078125 506.40625 L 414.210938 506.40625 L 414.210938 522.851562 L 399.136719 522.851562 L 399.136719 532.386719 L 408.597656 532.386719 Z M 408.585938 533.789062 " fill-opacity="1" fill-rule="nonzero"/><path fill="#00e0ff" d="M 741.453125 366.019531 L 741.453125 357.3125 L 734.085938 357.3125 L 734.085938 334.949219 L 723.839844 334.949219 L 723.839844 322.632812 L 712.988281 322.632812 L 712.988281 315.804688 L 719.105469 315.804688 L 719.105469 289.511719 L 705.292969 285.144531 L 701.066406 283.402344 L 683.179688 283.402344 L 683.179688 287.417969 L 681.4375 287.417969 L 681.4375 291.871094 L 669.78125 291.871094 L 669.78125 283.402344 L 647.417969 283.402344 L 647.417969 285.40625 L 640.050781 285.40625 L 640.050781 291.871094 L 634.824219 291.871094 L 634.824219 296.785156 L 625.976562 296.785156 L 625.976562 311.457031 L 634.222656 311.457031 L 634.222656 317.476562 L 643.660156 317.476562 L 643.660156 324.375 L 637.035156 324.375 L 637.035156 329.460938 L 631.011719 329.460938 L 631.011719 321.824219 L 617.542969 321.824219 L 617.542969 311.921875 L 606.566406 311.921875 L 606.566406 321.027344 L 588.609375 321.027344 L 588.609375 330.394531 L 575.753906 330.394531 L 575.753906 339.910156 L 567.179688 339.910156 L 567.179688 349.949219 L 559.542969 349.949219 L 559.542969 376.726562 L 574.011719 376.726562 L 574.011719 396.28125 L 593.300781 396.28125 L 593.300781 406.183594 L 607.761719 406.183594 L 607.761719 417.164062 L 599.1875 417.164062 L 599.1875 423.050781 L 622.367188 423.050781 L 622.367188 434.304688 L 643.660156 434.304688 L 643.660156 425.0625 L 653.839844 425.0625 L 653.839844 435.636719 L 667.640625 435.636719 L 667.640625 427.339844 L 674.878906 427.339844 L 674.878906 440.324219 L 669.65625 440.324219 L 669.65625 445.015625 L 686.800781 445.015625 L 686.800781 422.390625 L 697.515625 422.390625 L 697.515625 436.308594 L 706.625 436.308594 L 706.625 417.835938 L 711.976562 417.835938 L 711.976562 419.976562 L 717.066406 419.976562 L 717.066406 408.992188 L 727.917969 408.992188 L 727.917969 401.09375 L 726.050781 401.09375 L 726.050781 395.734375 L 728.328125 395.734375 L 728.328125 389.714844 L 739.835938 389.714844 L 739.835938 374.589844 L 617.144531 374.589844 L 617.144531 378.195312 L 609.378906 378.195312 L 609.378906 374.714844 L 593.972656 374.714844 L 593.972656 366.019531 L 579.898438 366.019531 L 579.898438 347.398438 L 604.152344 347.398438 L 604.152344 355.171875 L 592.765625 355.171875 L 592.765625 361.589844 L 605.484375 361.589844 L 605.484375 366.019531 Z M 683.648438 304.023438 L 693.828125 303.957031 L 693.828125 294.042969 L 704.140625 294.042969 L 704.140625 304.957031 L 707.488281 304.957031 L 707.488281 308.578125 L 705.144531 308.578125 L 705.144531 310.921875 L 694.292969 310.921875 L 694.292969 324.375 L 683.648438 324.375 Z M 646.472656 297.195312 L 657.324219 297.195312 L 657.324219 305.027344 L 671.261719 305.027344 L 671.261719 324.636719 L 658.53125 324.636719 L 658.53125 315.667969 L 661.34375 315.667969 L 661.34375 311.457031 L 646.472656 311.457031 Z M 636.703125 389.988281 L 713.183594 389.179688 L 713.183594 398.820312 L 700.054688 398.820312 L 700.054688 411.941406 L 684.25 411.941406 L 684.25 401.425781 L 673.800781 401.425781 L 673.800781 412.875 L 653.976562 412.875 L 653.976562 403.109375 L 636.703125 403.109375 Z M 636.703125 389.988281 " fill-opacity="1" fill-rule="nonzero"/><path fill="#00ff9f" d="M 734.222656 304.296875 L 734.222656 313.664062 L 744.9375 313.664062 L 744.9375 324.375 L 748.957031 324.375 L 748.957031 337.234375 L 751.097656 337.234375 L 751.097656 344.996094 L 760.207031 344.996094 L 760.207031 335.355469 L 763.417969 335.355469 L 763.417969 326.523438 L 757.257812 326.523438 L 757.257812 317.476562 L 751.632812 317.476562 L 751.632812 313.664062 L 747.613281 313.664062 L 747.613281 304.296875 Z M 734.222656 304.296875 " fill-opacity="1" fill-rule="nonzero"/><path fill="#00e0ff" d="M 778.152344 343.117188 L 778.152344 353.429688 L 773.265625 353.429688 L 773.265625 362.46875 L 793.964844 362.46875 L 793.964844 369.898438 L 786.53125 369.898438 L 786.53125 379.742188 L 810.441406 379.742188 L 810.441406 389.179688 L 778.152344 389.179688 L 778.152344 397.214844 L 815.0625 397.214844 L 815.0625 408.265625 L 802.800781 408.265625 L 802.800781 416.09375 L 832.144531 416.09375 L 832.144531 424.527344 L 850.828125 424.527344 L 850.828125 440.996094 L 859.058594 440.996094 L 859.058594 416.09375 L 846 416.09375 L 846 406.25 L 849.222656 406.25 L 849.222656 395.210938 L 831.9375 395.210938 L 831.9375 389.179688 L 840.582031 389.179688 L 840.582031 379.742188 L 828.921875 379.742188 L 828.921875 368.691406 L 818.070312 368.691406 L 818.070312 360.066406 L 808.027344 360.066406 L 808.027344 351.425781 L 796.175781 351.425781 L 796.175781 336.960938 L 788.066406 336.960938 Z M 778.152344 343.117188 " fill-opacity="1" fill-rule="nonzero"/><path fill="#b708fe" d="M 757.191406 407.660156 L 769.441406 407.660156 L 769.441406 419.90625 L 757.191406 419.90625 Z M 757.191406 407.660156 " fill-opacity="1" fill-rule="nonzero"/><path fill="#00e0ff" d="M 278.785156 570.378906 L 278.785156 579.585938 L 323.589844 579.585938 L 323.589844 590.570312 L 303.425781 590.570312 L 303.425781 602.882812 L 330.21875 602.882812 L 330.21875 593.777344 L 349.503906 593.777344 L 349.503906 601.8125 L 339.859375 601.8125 L 339.859375 612.25 L 355.800781 612.25 L 355.800781 605.296875 L 368.894531 605.296875 L 368.894531 612.25 L 363.976562 612.25 L 363.976562 625.179688 L 389.160156 625.179688 L 389.160156 618.679688 L 396.925781 618.679688 L 396.925781 627.785156 L 392.371094 627.785156 L 392.371094 634.476562 L 414.210938 634.476562 L 414.210938 626.714844 L 426.394531 626.714844 L 426.394531 632.871094 L 420.234375 632.871094 L 420.234375 639.566406 L 445.683594 639.566406 L 445.683594 616.007812 L 456.40625 616.007812 L 456.40625 609.574219 L 470.070312 609.574219 L 470.070312 601.003906 L 443.816406 601.003906 L 443.816406 592.171875 L 414.210938 592.171875 L 414.210938 580.121094 L 384.609375 580.121094 L 384.609375 577.171875 L 368.894531 577.171875 L 368.894531 566.726562 L 347.898438 566.726562 L 347.898438 559.5 L 314.140625 559.5 L 314.140625 565.65625 L 330.492188 565.65625 L 330.492188 570.480469 Z M 278.785156 570.378906 " fill-opacity="1" fill-rule="nonzero"/><path fill="#00e0ff" d="M 788.066406 161.019531 L 820.484375 161.019531 L 820.484375 174.949219 L 788.066406 174.949219 Z M 788.066406 161.019531 " fill-opacity="1" fill-rule="nonzero"/><path fill="#b708fe" d="M 811.375 191.816406 L 839.238281 191.816406 L 839.238281 205.007812 L 811.375 205.007812 Z M 811.375 191.816406 " fill-opacity="1" fill-rule="nonzero"/><path fill="#ff0060" d="M 840.582031 179.003906 L 872.1875 179.003906 L 872.1875 191.816406 L 840.582031 191.816406 Z M 840.582031 179.003906 " fill-opacity="1" fill-rule="nonzero"/><path fill="#00e0ff" d="M 818.878906 232.253906 L 901.128906 232.253906 L 901.128906 242.964844 L 818.878906 242.964844 Z M 818.878906 232.253906 " fill-opacity="1" fill-rule="nonzero"/><path fill="#001230" d="M 860.003906 257.964844 L 922.296875 257.964844 L 922.296875 268.414062 L 860.003906 268.414062 Z M 860.003906 257.964844 " fill-opacity="1" fill-rule="nonzero"/><path fill="#b708fe" d="M 806.820312 273.761719 L 845.667969 273.761719 L 845.667969 284.472656 L 806.820312 284.472656 Z M 806.820312 273.761719 " fill-opacity="1" fill-rule="nonzero"/><path fill="#ff0060" d="M 831.734375 291.871094 L 873.53125 291.871094 L 873.53125 304.285156 L 831.734375 304.285156 Z M 831.734375 291.871094 " fill-opacity="1" fill-rule="nonzero"/><path fill="#00ff9f" d="M 891.144531 316.613281 L 923.890625 316.613281 L 923.890625 329.996094 L 891.144531 329.996094 Z M 891.144531 316.613281 " fill-opacity="1" fill-rule="nonzero"/><path fill="#b708fe" d="M 919.335938 335.492188 L 951.21875 335.492188 L 951.21875 347.410156 L 919.335938 347.410156 Z M 919.335938 335.492188 " fill-opacity="1" fill-rule="nonzero"/><path fill="#00e0ff" d="M 931.132812 401.039062 L 962.203125 401.039062 L 962.203125 412.886719 L 931.132812 412.886719 Z M 931.132812 401.039062 " fill-opacity="1" fill-rule="nonzero"/><path fill="#00e0ff" d="M 588.007812 247.789062 L 577.359375 247.789062 L 577.359375 262.789062 L 579.375 262.789062 L 579.375 266.671875 L 582.6875 266.671875 L 582.6875 272.292969 L 586.003906 272.292969 L 586.003906 274.101562 L 588.007812 274.101562 L 588.007812 276.3125 L 592.128906 276.3125 L 592.128906 277.710938 L 610.617188 277.710938 L 610.617188 275.914062 L 615.242188 275.914062 L 615.242188 274.398438 L 616.847656 274.398438 L 616.847656 271.484375 L 620.160156 271.484375 L 620.160156 269.675781 L 621.765625 269.675781 L 621.765625 267.777344 L 624.679688 267.777344 L 624.679688 264.964844 L 627.59375 264.964844 L 627.59375 249.996094 L 625.886719 249.996094 L 625.886719 245.445312 C 625.886719 245.445312 620.558594 245.546875 620.660156 245.445312 C 620.761719 245.34375 620.660156 257.792969 620.660156 257.792969 L 620.660156 261.105469 L 618.417969 261.105469 L 618.417969 263.519531 L 614.195312 263.519531 L 614.195312 267.433594 L 610.082031 267.433594 L 610.082031 269.140625 L 598.253906 269.140625 L 598.253906 267.492188 L 595.976562 267.492188 L 595.976562 265.429688 L 592.558594 265.429688 L 592.558594 263.371094 L 590.066406 263.371094 L 590.066406 260.410156 L 588.007812 260.410156 Z M 588.007812 247.789062 " fill-opacity="1" fill-rule="nonzero"/><path fill="#00e0ff" d="M 699.054688 255.425781 L 693.894531 255.425781 L 693.894531 268.878906 L 695.570312 268.878906 L 695.570312 270.984375 L 698.414062 270.984375 L 698.414062 273.695312 L 700.535156 273.695312 L 700.535156 277.3125 L 718.316406 277.3125 L 718.316406 275.003906 L 721.324219 275.003906 L 721.324219 270.792969 L 724.945312 270.792969 L 724.945312 268.570312 L 726.859375 268.570312 L 726.859375 258.933594 L 728.757812 258.933594 L 728.757812 248.6875 L 721.324219 248.6875 L 721.324219 256.78125 L 719.820312 256.78125 L 719.820312 261.140625 L 717.804688 261.140625 L 717.804688 264.964844 L 715.300781 264.964844 L 715.300781 267.273438 L 706.054688 267.273438 L 706.054688 265.566406 L 700.535156 265.566406 L 700.535156 260.242188 L 699.054688 260.242188 Z M 699.054688 255.425781 " fill-opacity="1" fill-rule="nonzero"/><path fill="#00e0ff" d="M 402.253906 235.132812 L 402.253906 247.585938 L 339.996094 247.585938 L 339.996094 240.027344 L 346.691406 240.027344 L 346.691406 229.714844 L 379.382812 229.714844 L 379.382812 223.820312 L 389.960938 223.820312 L 389.960938 235.066406 Z M 402.253906 235.132812 " fill-opacity="1" fill-rule="nonzero"/><path fill="#00e0ff" d="M 424.183594 459.617188 L 414.210938 459.617188 L 414.210938 432.164062 L 403.894531 432.164062 L 403.894531 454.792969 L 391.5625 454.792969 L 391.5625 430.960938 L 393.976562 430.960938 L 393.976562 421.046875 L 378.984375 421.046875 L 378.984375 435.25 L 368.894531 435.25 L 368.894531 429.082031 L 353.523438 429.082031 L 353.523438 419.179688 L 373.894531 419.179688 L 373.894531 408.46875 L 349.378906 408.46875 L 349.378906 393.195312 L 364.785156 393.195312 L 364.785156 383.828125 L 344.6875 383.828125 L 344.6875 369.898438 L 356.472656 369.898438 L 356.472656 360.929688 L 386.679688 360.929688 L 386.679688 350.753906 L 406.035156 350.753906 L 406.035156 342.050781 L 419.4375 342.050781 L 419.4375 354.441406 L 441.800781 354.441406 L 441.800781 368.828125 L 428.808594 368.828125 L 428.808594 377.398438 L 444.214844 377.398438 L 444.214844 383.292969 L 449.835938 383.292969 L 449.835938 387.3125 L 457.273438 387.3125 L 457.273438 408.46875 L 469.261719 408.46875 L 469.261719 426.144531 L 457.875 426.144531 L 457.875 438.460938 L 447.296875 438.460938 L 447.296875 416.492188 L 435.503906 416.492188 L 435.503906 446.496094 L 424.253906 446.496094 Z M 424.183594 459.617188 " fill-opacity="1" fill-rule="nonzero"/><path fill="#00e0ff" d="M 475.023438 639.566406 L 470.070312 639.566406 L 470.070312 624.304688 L 480.511719 624.304688 L 480.511719 616.800781 L 489.757812 616.800781 L 489.757812 605.296875 L 509.179688 605.296875 L 509.179688 592.433594 L 533.023438 592.433594 L 533.023438 582.261719 L 553.65625 582.261719 L 553.65625 572.085938 L 572.132812 572.085938 L 572.132812 564.324219 L 589.28125 564.324219 L 589.28125 573.429688 L 608.84375 573.429688 L 608.84375 586.277344 L 621.09375 586.277344 L 621.09375 595.65625 L 631.613281 595.65625 L 631.613281 607.972656 L 640.449219 607.972656 L 640.449219 641.976562 L 631.078125 641.976562 L 631.078125 628.59375 L 621.09375 628.59375 L 621.09375 614.402344 L 609.378906 614.402344 L 609.378906 601.539062 L 589.554688 601.539062 L 589.554688 611.453125 L 598.128906 611.453125 L 598.128906 625.109375 L 609.378906 625.109375 L 609.378906 640.375 L 619.019531 640.375 L 619.019531 666.617188 L 605.359375 666.617188 L 605.359375 651.082031 L 593.300781 651.082031 L 593.300781 636.890625 L 582.050781 636.890625 L 582.050781 625.371094 L 568.648438 625.371094 L 568.648438 615.472656 L 547.757812 615.472656 L 547.757812 626.714844 L 560.078125 626.714844 L 560.078125 636.890625 L 570.527344 636.890625 L 570.527344 651.617188 L 579.101562 651.617188 L 579.101562 665.046875 L 558.878906 665.046875 L 558.878906 656.707031 L 546.414062 656.707031 L 546.414062 644.152344 L 531.953125 644.152344 L 531.953125 633.144531 L 513.460938 633.144531 L 513.460938 628.320312 L 502.214844 628.320312 L 502.214844 643.457031 L 492.308594 643.457031 L 492.308594 630.460938 L 476.59375 630.460938 L 476.59375 639.566406 Z M 475.023438 639.566406 " fill-opacity="1" fill-rule="nonzero"/><path fill="#ff0060" d="M 464.171875 294.65625 L 464.171875 301.714844 L 436.574219 301.714844 L 436.574219 287.953125 L 424.253906 287.953125 L 424.253906 269.210938 L 430.6875 269.210938 L 430.6875 279.121094 L 442.746094 279.121094 L 442.746094 291.710938 L 464.171875 291.710938 Z M 464.171875 294.65625 " fill-opacity="1" fill-rule="nonzero"/><path fill="#b708fe" d="M 479.179688 324.648438 L 466.3125 324.648438 L 466.3125 310.921875 L 479.179688 310.921875 L 479.179688 306.4375 L 486.410156 306.4375 L 486.410156 312.765625 L 479.441406 312.765625 Z M 479.179688 324.648438 " fill-opacity="1" fill-rule="nonzero"/><path fill="#00e0ff" d="M 490.691406 294.054688 L 507.574219 294.054688 L 507.574219 298.9375 L 495.246094 298.9375 L 495.246094 304.296875 L 486.410156 304.296875 L 486.410156 294.054688 Z M 490.691406 294.054688 " fill-opacity="1" fill-rule="nonzero"/><path fill="#ffffff" d="M 614.46875 244.582031 L 614.46875 243.363281 L 608.726562 243.363281 L 608.726562 246.402344 L 606.03125 246.402344 L 606.03125 251.671875 L 607.5 251.671875 L 607.5 252.628906 L 614.332031 252.628906 L 614.332031 251.410156 L 615.285156 251.410156 L 615.285156 244.582031 Z M 614.46875 244.582031 " fill-opacity="1" fill-rule="nonzero"/><path fill="#ffffff" d="M 716.65625 246.128906 L 716.65625 245.480469 L 711.589844 245.480469 L 711.589844 248.121094 L 709.230469 248.121094 L 709.230469 252.84375 L 710.007812 252.84375 L 710.007812 253.550781 L 715.734375 253.550781 L 715.734375 252.34375 L 717.292969 252.34375 L 717.292969 246.128906 Z M 716.65625 246.128906 " fill-opacity="1" fill-rule="nonzero"/><path fill="#000000" d="M 751.222656 377.398438 L 752.839844 377.398438 L 752.839844 356.378906 L 761.878906 356.378906 L 761.878906 373.847656 L 775.132812 373.847656 L 775.132812 377.796875 L 766.765625 377.796875 L 766.765625 396.28125 L 751.222656 396.28125 Z M 665.328125 272.019531 L 662.824219 272.019531 L 662.824219 256.085938 L 665.363281 256.085938 Z M 652.804688 201.117188 L 683.078125 201.117188 L 683.078125 204.269531 L 670.054688 204.269531 L 670.054688 219.929688 L 659.875 219.929688 L 659.875 204.40625 L 652.835938 204.40625 Z M 603.980469 154.328125 L 609.671875 154.328125 L 609.671875 147.898438 L 611.574219 147.898438 L 611.574219 143.878906 L 614.125 143.878906 L 614.125 156.867188 L 603.945312 156.867188 Z M 486 282.660156 L 481.980469 282.660156 L 481.980469 274.082031 L 468.589844 274.082031 L 468.589844 268.265625 L 469.261719 268.265625 L 469.261719 258.089844 L 486 258.089844 Z M 516.535156 312.992188 L 506.628906 312.992188 L 506.628906 310.320312 L 516.535156 310.320312 Z M 541.722656 287.554688 L 526.191406 287.554688 L 526.191406 249.519531 L 529.402344 249.519531 L 529.402344 251.398438 L 541.722656 251.398438 Z M 558.335938 197.90625 L 558.335938 210.289062 L 543.929688 210.289062 L 543.929688 205.667969 L 497.660156 205.667969 L 497.660156 204.941406 L 505.152344 204.941406 L 505.152344 200.785156 L 511.046875 200.785156 L 511.046875 200.71875 L 533.285156 200.71875 L 533.285156 197.90625 Z M 456.53125 150.84375 L 461.085938 150.84375 L 461.085938 132.363281 L 463.089844 132.363281 L 463.089844 130.085938 L 474.214844 130.085938 L 474.214844 121.390625 L 487.070312 121.390625 L 487.070312 108.269531 L 490.417969 108.269531 L 490.417969 102.234375 L 491.761719 102.234375 L 491.761719 158.878906 L 524.574219 158.878906 L 524.574219 133.636719 L 541.050781 133.636719 L 541.050781 139.191406 L 538.441406 139.191406 L 538.441406 149.636719 L 524.78125 149.636719 L 524.78125 164.695312 L 504.285156 164.695312 L 504.285156 165.96875 L 482.515625 165.96875 L 482.515625 168.109375 L 473.144531 168.109375 L 473.144531 170.523438 L 459.480469 170.523438 L 459.480469 158.878906 L 456.53125 158.878906 Z M 406.230469 217.390625 L 406.230469 223.777344 L 401.34375 223.777344 L 401.34375 212.472656 L 396.652344 212.472656 L 396.652344 211.335938 L 402.78125 211.335938 L 402.78125 207.832031 L 412.421875 207.832031 L 412.421875 206.691406 L 415.078125 206.691406 L 415.078125 216.332031 L 421.703125 216.332031 L 421.703125 217.335938 Z M 346.019531 348.945312 L 359.082031 348.945312 L 359.082031 340.511719 L 374.347656 340.511719 L 374.347656 328.859375 L 398.066406 328.859375 L 398.066406 321.222656 L 417.753906 321.222656 L 417.753906 318.011719 L 429 318.011719 L 429 313.09375 L 454.925781 313.09375 L 454.925781 336.015625 L 460.550781 336.015625 L 460.550781 371.902344 L 455.597656 371.902344 L 455.597656 366.019531 L 453.183594 366.019531 L 453.183594 343.050781 L 430.8125 343.050781 L 430.8125 330.667969 L 394.648438 330.667969 L 394.648438 339.375 L 375.292969 339.375 L 375.292969 349.550781 L 346.019531 349.550781 Z M 342.207031 353.15625 L 345.085938 353.15625 L 345.085938 358.519531 L 342.207031 358.519531 Z M 593.960938 668.621094 L 590.546875 668.621094 L 590.546875 662.464844 L 593.960938 662.464844 Z M 636.28125 668.621094 L 630.394531 668.621094 L 630.394531 653.359375 L 640.972656 653.359375 Z M 651.835938 617.941406 L 651.835938 596.589844 L 642.988281 596.589844 L 642.988281 584.265625 L 632.480469 584.265625 L 632.480469 574.898438 L 620.21875 574.898438 L 620.21875 570.890625 L 629.542969 570.890625 L 629.609375 557.757812 L 639.777344 557.757812 L 639.777344 524.011719 L 646.335938 524.011719 L 646.335938 550.257812 L 672.605469 550.257812 Z M 681.882812 519.996094 L 679.421875 519.996094 L 679.421875 509.285156 L 685.117188 509.285156 Z M 681.882812 519.996094 " fill-opacity="1" fill-rule="nonzero"/><path fill="#ff0060" d="M 768.246094 327.855469 L 776.011719 327.855469 L 776.011719 334.820312 L 788.066406 334.820312 L 788.066406 343.117188 L 768.246094 343.117188 Z M 768.246094 327.855469 " fill-opacity="1" fill-rule="nonzero"/><path fill="#ff0060" d="M 967.761719 648.078125 L 997.296875 648.078125 L 997.296875 656.851562 L 967.761719 656.851562 Z M 967.761719 648.078125 " fill-opacity="1" fill-rule="nonzero"/><path fill="#b708fe" d="M 981.824219 682.152344 L 1005.871094 682.152344 L 1005.871094 690.722656 L 981.824219 690.722656 Z M 981.824219 682.152344 " fill-opacity="1" fill-rule="nonzero"/><path fill="#00e0ff" d="M 997.296875 612.523438 L 1020.203125 612.523438 L 1020.203125 618.75 L 997.296875 618.75 Z M 997.296875 612.523438 " fill-opacity="1" fill-rule="nonzero"/><path fill="#001230" d="M 1012.167969 573.429688 L 1041.097656 573.429688 L 1041.097656 582.796875 L 1012.167969 582.796875 Z M 1012.167969 573.429688 " fill-opacity="1" fill-rule="nonzero"/><path fill="#00e0ff" d="M 199.210938 398.558594 L 227.742188 398.558594 L 227.742188 412.28125 L 199.210938 412.28125 Z M 199.210938 398.558594 " fill-opacity="1" fill-rule="nonzero"/><path fill="#00e0ff" d="M 300.75 285.460938 L 323.660156 285.460938 L 323.660156 299.164062 L 300.75 299.164062 Z M 300.75 285.460938 " fill-opacity="1" fill-rule="nonzero"/><path fill="#ff0060" d="M 349.378906 131.941406 L 376.84375 131.941406 L 376.84375 144.757812 L 349.378906 144.757812 Z M 349.378906 131.941406 " fill-opacity="1" fill-rule="nonzero"/><path fill="#b708fe" d="M 238.527344 309.851562 L 268.335938 309.851562 L 268.335938 321.507812 L 238.527344 321.507812 Z M 238.527344 309.851562 " fill-opacity="1" fill-rule="nonzero"/><path fill="#ff0060" d="M 178.589844 656.839844 L 203.777344 656.839844 L 203.777344 666.617188 L 178.589844 666.617188 Z M 178.589844 656.839844 " fill-opacity="1" fill-rule="nonzero"/><path fill="#00e0ff" d="M 203.765625 692.054688 L 227.742188 692.054688 L 227.742188 702.628906 L 203.765625 702.628906 Z M 203.765625 692.054688 " fill-opacity="1" fill-rule="nonzero"/><path fill="#00ff9f" d="M 159.292969 557.621094 L 183.40625 557.621094 L 183.40625 569 L 159.292969 569 Z M 159.292969 557.621094 " fill-opacity="1" fill-rule="nonzero"/><path fill="#00010d" d="M 161.441406 495.761719 L 199.222656 495.761719 L 199.222656 505.9375 L 161.441406 505.9375 Z M 161.441406 495.761719 " fill-opacity="1" fill-rule="nonzero"/><path fill="#ff0060" d="M 371.125 356.378906 L 386.679688 356.378906 L 386.679688 365.3125 L 371.125 365.3125 Z M 371.125 356.378906 " fill-opacity="1" fill-rule="nonzero"/><path fill="#ff0060" d="M 410.976562 398.558594 L 435.230469 398.558594 L 435.230469 407.492188 L 410.976562 407.492188 Z M 410.976562 398.558594 " fill-opacity="1" fill-rule="nonzero"/><path fill="#b708fe" d="M 516.515625 502.546875 L 536.40625 502.546875 L 536.40625 511.480469 L 516.515625 511.480469 Z M 516.515625 502.546875 " fill-opacity="1" fill-rule="nonzero"/><path fill="#b708fe" d="M 353.160156 519.550781 L 367.1875 519.550781 L 367.1875 528.484375 L 353.160156 528.484375 Z M 353.160156 519.550781 " fill-opacity="1" fill-rule="nonzero"/><path fill="#ff0060" d="M 587.242188 522.566406 L 607.132812 522.566406 L 607.132812 531.5 L 587.242188 531.5 Z M 587.242188 522.566406 " fill-opacity="1" fill-rule="nonzero"/><path fill="#ff0060" d="M 516.515625 680.003906 L 580.308594 680.003906 L 580.308594 687.832031 L 516.515625 687.832031 Z M 516.515625 680.003906 " fill-opacity="1" fill-rule="nonzero"/><path fill="#fff42c" d="M 844.746094 630.460938 L 804.886719 630.460938 L 804.886719 625.007812 L 791.0625 625.007812 L 791.0625 616.097656 L 783.230469 616.097656 L 783.230469 604.816406 L 821.453125 604.816406 L 821.453125 599.71875 L 834.011719 599.71875 L 834.011719 591.355469 L 842.925781 591.355469 L 842.925781 574.25 L 851.304688 574.25 L 851.304688 559.875 L 857.488281 559.875 L 857.488281 547.867188 L 850.328125 547.867188 L 850.328125 535.132812 L 880.238281 535.132812 L 880.238281 547.136719 L 868.40625 547.136719 L 868.40625 558.417969 L 878.0625 558.417969 L 878.0625 603.179688 L 868.042969 603.179688 L 868.042969 614.824219 L 857.304688 614.824219 L 857.304688 623.003906 L 844.746094 623.003906 Z M 844.746094 630.460938 " fill-opacity="1" fill-rule="nonzero"/><path fill="#000000" d="M 401.574219 716.765625 L 642.125 716.765625 L 642.125 774.261719 L 632.023438 774.261719 L 632.023438 793.710938 L 620.910156 793.710938 L 620.910156 812.890625 L 611.8125 812.890625 L 611.8125 817.648438 L 642.125 817.648438 L 642.125 872.21875 L 531.429688 872.21875 L 531.429688 816.382812 L 538.25 816.382812 L 538.25 802.226562 L 549.613281 802.226562 L 549.613281 785.0625 L 559.472656 785.0625 L 559.472656 773.488281 L 531.429688 773.488281 L 531.429688 772.246094 L 525.667969 772.246094 L 525.667969 873.621094 L 467.507812 873.621094 L 467.507812 838.851562 L 467.769531 838.851562 L 467.769531 783.296875 L 468.273438 783.296875 L 468.273438 772.246094 L 460.996094 772.246094 L 460.996094 857.082031 L 459.480469 857.082031 L 459.480469 873.621094 L 214.25 873.621094 L 214.25 716.765625 L 395.8125 716.765625 L 395.8125 725.46875 L 401.574219 725.46875 Z M 401.574219 716.765625 " fill-opacity="1" fill-rule="nonzero"/><path fill="#00e0ff" d="M 285.332031 748.222656 L 276.429688 748.222656 L 276.429688 767.34375 L 267.707031 767.34375 L 267.707031 778.324219 L 255.84375 778.324219 L 255.84375 788.75 L 230.203125 788.75 L 230.203125 819.808594 L 243.023438 819.808594 L 243.023438 827.378906 L 230.203125 827.378906 L 230.203125 857.6875 L 254.957031 857.6875 L 254.707031 809.578125 L 268.277344 809.578125 L 268.277344 822.460938 L 273.402344 822.460938 L 273.402344 829.835938 L 277.945312 829.835938 L 277.945312 843.675781 L 286.664062 843.675781 L 286.664062 857.6875 L 312.808594 857.6875 L 312.808594 850.117188 L 309.210938 850.117188 L 309.210938 840.066406 L 303.140625 840.066406 L 303.140625 832.5 L 297.082031 832.5 L 297.082031 817.15625 L 288.75 817.15625 L 288.75 804.273438 L 280.414062 804.273438 L 280.414062 790.261719 L 288.75 790.261719 L 288.75 774.546875 L 297.640625 774.546875 L 297.640625 757.691406 L 306.363281 757.691406 L 306.363281 743.292969 L 312.808594 743.292969 L 312.808594 732.699219 L 285.332031 732.699219 Z M 285.332031 748.222656 " fill-opacity="1" fill-rule="nonzero"/><path fill="#000000" d="M 959.175781 812.890625 L 959.175781 793.699219 L 970.242188 793.699219 L 970.242188 774.25 L 980.34375 774.25 L 980.34375 716.753906 L 648.148438 716.753906 L 648.148438 873.628906 L 980.386719 872.230469 L 980.386719 817.601562 L 950.078125 817.601562 L 950.078125 812.855469 Z M 704.949219 820.152344 L 704.621094 820.152344 L 704.621094 819.820312 L 704.949219 819.820312 Z M 704.949219 820.152344 " fill-opacity="1" fill-rule="nonzero"/><path fill="#00e0ff" d="M 230.203125 732.699219 L 255.332031 732.699219 L 255.332031 775.503906 L 230.203125 775.503906 Z M 230.203125 732.699219 " fill-opacity="1" fill-rule="nonzero"/><path fill="#00e0ff" d="M 390.699219 821.449219 L 379.882812 821.449219 L 379.882812 808.566406 L 388.992188 808.566406 L 388.992188 795.179688 L 399.113281 795.179688 L 399.113281 741.394531 L 379.882812 741.394531 L 379.882812 732.6875 L 322.03125 732.6875 L 322.03125 739.128906 L 338.699219 739.128906 L 338.699219 745.957031 L 322.03125 745.957031 L 322.03125 792.914062 L 338.699219 792.914062 L 338.699219 801.757812 L 322.03125 801.757812 L 322.03125 831.042969 L 333.644531 831.042969 L 333.644531 836.847656 L 322.03125 836.847656 L 322.03125 857.6875 L 348.933594 857.6875 L 348.933594 810.554688 L 361.949219 810.554688 L 361.949219 822.6875 L 369.53125 822.6875 L 369.53125 843.890625 L 377.855469 843.890625 L 377.855469 857.664062 L 400.34375 857.664062 L 400.34375 833.570312 L 390.699219 833.570312 Z M 377.035156 789.113281 L 348.933594 789.113281 L 348.933594 749.28125 L 361.1875 749.28125 L 361.1875 758.625 L 377.128906 758.625 Z M 377.035156 789.113281 " fill-opacity="1" fill-rule="nonzero"/><path fill="#00e0ff" d="M 417.523438 732.699219 L 445.066406 732.699219 L 445.066406 756.3125 L 417.523438 756.3125 Z M 417.523438 732.699219 " fill-opacity="1" fill-rule="nonzero"/><path fill="#00e0ff" d="M 417.523438 779.53125 L 429.902344 779.53125 L 429.902344 785.835938 L 417.523438 785.835938 L 417.523438 857.6875 L 443.542969 857.6875 L 443.542969 848.214844 L 431.289062 848.214844 L 431.289062 841.136719 L 445.054688 841.136719 L 445.054688 765.894531 L 417.523438 765.894531 Z M 417.523438 779.53125 " fill-opacity="1" fill-rule="nonzero"/><path fill="#00e0ff" d="M 457.445312 756.300781 L 484.210938 756.300781 L 484.210938 792.914062 L 494.824219 792.914062 L 494.824219 799.230469 L 483.710938 799.230469 L 483.710938 849.480469 L 493.308594 849.480469 L 493.308594 854.785156 L 483.449219 854.785156 L 483.449219 857.6875 L 509.726562 857.6875 L 509.726562 835.082031 L 500.378906 835.082031 L 500.378906 829.527344 L 509.726562 829.527344 L 509.726562 786.359375 L 496.601562 786.359375 L 496.601562 777.003906 L 509.726562 777.003906 L 509.726562 756.300781 L 535.996094 756.300781 L 535.996094 732.699219 L 457.445312 732.699219 Z M 457.445312 756.300781 " fill-opacity="1" fill-rule="nonzero"/><path fill="#00e0ff" d="M 547.371094 757.554688 L 595.371094 757.554688 L 595.371094 767.910156 L 585.261719 767.910156 L 585.261719 784.324219 L 575.414062 784.324219 L 575.414062 800.996094 L 565.554688 800.996094 L 565.554688 818.160156 L 554.199219 818.160156 L 554.199219 832.304688 L 547.371094 832.304688 L 547.371094 856.296875 L 626.183594 856.296875 L 626.183594 833.582031 L 577.941406 833.582031 L 577.941406 823.722656 L 586.789062 823.722656 L 586.789062 811.785156 L 595.875 811.785156 L 595.875 796.957031 L 604.972656 796.957031 L 604.972656 777.765625 L 616.082031 777.765625 L 616.082031 758.328125 L 626.183594 758.328125 L 626.183594 732.699219 L 547.371094 732.699219 Z M 547.371094 757.554688 " fill-opacity="1" fill-rule="nonzero"/><path fill="#ff0060" d="M 869.695312 772.179688 L 870.753906 772.179688 L 870.753906 773.488281 L 869.695312 773.488281 Z M 869.695312 772.179688 " fill-opacity="1" fill-rule="nonzero"/><path fill="#ff0060" d="M 925.050781 823.722656 L 925.050781 811.785156 L 934.136719 811.785156 L 934.136719 796.957031 L 943.234375 796.957031 L 943.234375 777.765625 L 954.347656 777.765625 L 954.347656 758.328125 L 964.449219 758.328125 L 964.449219 732.699219 L 885.632812 732.699219 L 885.632812 757.554688 L 933.636719 757.554688 L 933.636719 767.910156 L 923.539062 767.910156 L 923.539062 784.324219 L 913.679688 784.324219 L 913.679688 800.996094 L 903.816406 800.996094 L 903.816406 818.160156 L 892.453125 818.160156 L 892.453125 832.304688 L 885.632812 832.304688 L 885.632812 856.296875 L 964.449219 856.296875 L 964.449219 833.582031 L 916.207031 833.582031 L 916.207031 823.722656 Z M 925.050781 823.722656 " fill-opacity="1" fill-rule="nonzero"/><path fill="#ff0060" d="M 725.980469 732.6875 L 664.085938 732.6875 L 664.085938 736.851562 L 680.253906 736.851562 L 680.253906 747.195312 L 664.085938 747.195312 L 664.085938 776.503906 L 689.136719 776.503906 L 689.023438 756.300781 L 720.664062 756.300781 L 720.664062 775.742188 L 713.832031 775.742188 L 713.832031 783.070312 L 664.074219 783.070312 L 664.074219 789.113281 L 689.578125 789.113281 L 689.578125 797.457031 L 664.074219 797.457031 L 664.074219 809.828125 L 675.1875 809.828125 L 675.1875 817.144531 L 664.074219 817.144531 L 664.074219 857.6875 L 735.808594 857.6875 L 735.808594 841.898438 L 745.941406 841.898438 L 745.941406 802.257812 L 733.804688 802.257812 L 733.804688 785.085938 L 745.941406 785.085938 L 745.941406 746.195312 L 725.980469 746.195312 Z M 720.890625 836.09375 L 688.714844 836.09375 L 688.714844 803.898438 L 720.890625 803.898438 Z M 720.890625 836.09375 " fill-opacity="1" fill-rule="nonzero"/><path fill="#ff0060" d="M 762.597656 763.871094 L 777.511719 763.871094 L 777.511719 773.726562 L 762.597656 773.726562 L 762.597656 857.6875 L 787.863281 857.6875 L 787.863281 842.664062 L 776.5 842.628906 L 776.5 833.820312 L 787.863281 833.820312 L 787.863281 755.789062 L 762.597656 755.789062 Z M 762.597656 763.871094 " fill-opacity="1" fill-rule="nonzero"/><path fill="#ff0060" d="M 762.609375 732.699219 L 787.875 732.699219 L 787.875 748.097656 L 762.609375 748.097656 Z M 762.609375 732.699219 " fill-opacity="1" fill-rule="nonzero"/><path fill="#ff0060" d="M 869.695312 772.179688 L 870.753906 772.179688 L 870.753906 773.488281 L 869.695312 773.488281 Z M 869.695312 772.179688 " fill-opacity="1" fill-rule="nonzero"/><path fill="#ff0060" d="M 803.53125 757.316406 L 828.292969 757.316406 L 828.292969 780.917969 L 854.9375 780.917969 L 854.9375 756.804688 L 878.050781 756.804688 L 878.050781 732.699219 L 803.53125 732.699219 Z M 803.53125 757.316406 " fill-opacity="1" fill-rule="nonzero"/><path fill="#ff0060" d="M 828.292969 812.355469 L 842.4375 812.355469 L 842.4375 820.433594 L 827.78125 820.433594 L 827.78125 858.574219 L 854.824219 858.574219 L 854.824219 788.113281 L 828.292969 788.113281 Z M 828.292969 812.355469 " fill-opacity="1" fill-rule="nonzero"/><path fill="#000000" d="M 980.386719 873.621094 L 980.386719 869.273438 L 969.707031 868.066406 L 950.011719 868.066406 L 956.445312 870.84375 L 975.058594 872.742188 Z M 980.386719 873.621094 " fill-opacity="1" fill-rule="nonzero"/></svg>