<svg xmlns="http://www.w3.org/2000/svg" xmlns:xlink="http://www.w3.org/1999/xlink" width="1200" zoomAndPan="magnify" viewBox="0 0 900 225" height="300" preserveAspectRatio="xMidYMid meet" version="1.0"><path fill="#000000" d="M 224.148438 22.320312 L 501.953125 22.320312 L 501.953125 88.777344 L 490.289062 88.777344 L 490.289062 111.257812 L 477.464844 111.257812 L 477.464844 133.4375 L 466.953125 133.4375 L 466.953125 138.917969 L 501.953125 138.917969 L 501.953125 202.011719 L 374.117188 202.011719 L 374.117188 137.460938 L 381.992188 137.460938 L 381.992188 121.109375 L 395.121094 121.109375 L 395.121094 101.253906 L 406.5 101.253906 L 406.5 87.898438 L 374.117188 87.898438 L 374.117188 86.441406 L 367.464844 86.441406 L 367.464844 203.628906 L 300.292969 203.628906 L 300.292969 163.425781 L 300.601562 163.425781 L 300.601562 99.234375 L 301.183594 99.234375 L 301.183594 86.441406 L 292.773438 86.441406 L 292.773438 184.5 L 291.027344 184.5 L 291.027344 203.628906 L 7.8125 203.628906 L 7.8125 22.320312 L 217.496094 22.320312 L 217.496094 32.378906 L 224.148438 32.378906 Z M 224.148438 22.320312 " fill-opacity="1" fill-rule="nonzero"/><path fill="#00e0ff" d="M 89.902344 58.6875 L 79.625 58.6875 L 79.625 80.789062 L 69.558594 80.789062 L 69.558594 93.476562 L 55.839844 93.476562 L 55.839844 105.519531 L 26.226562 105.519531 L 26.226562 141.425781 L 41.035156 141.425781 L 41.035156 150.179688 L 26.226562 150.179688 L 26.226562 185.207031 L 54.820312 185.207031 L 54.53125 129.605469 L 70.214844 129.605469 L 70.214844 144.488281 L 76.128906 144.488281 L 76.128906 153.023438 L 81.375 153.023438 L 81.375 169.007812 L 91.4375 169.007812 L 91.4375 185.207031 L 121.628906 185.207031 L 121.628906 176.449219 L 117.476562 176.449219 L 117.476562 164.84375 L 110.472656 164.84375 L 110.472656 156.097656 L 103.476562 156.097656 L 103.476562 138.359375 L 93.847656 138.359375 L 93.847656 123.476562 L 84.222656 123.476562 L 84.222656 107.273438 L 93.847656 107.273438 L 93.847656 89.109375 L 104.121094 89.109375 L 104.121094 69.628906 L 114.191406 69.628906 L 114.191406 52.992188 L 121.628906 52.992188 L 121.628906 40.742188 L 89.902344 40.742188 Z M 89.902344 58.6875 " fill-opacity="1" fill-rule="nonzero"/><path fill="#000000" d="M 868.117188 133.4375 L 868.117188 111.257812 L 880.953125 111.257812 L 880.953125 88.777344 L 892.617188 88.777344 L 892.617188 22.320312 L 508.917969 22.320312 L 508.917969 203.628906 L 892.617188 202.011719 L 892.617188 138.917969 L 857.605469 138.917969 L 857.605469 133.4375 Z M 574.53125 141.828125 L 574.148438 141.828125 L 574.148438 141.445312 L 574.53125 141.445312 Z M 574.53125 141.828125 " fill-opacity="1" fill-rule="nonzero"/><path fill="#00e0ff" d="M 26.226562 40.742188 L 55.257812 40.742188 L 55.257812 90.203125 L 26.226562 90.203125 Z M 26.226562 40.742188 " fill-opacity="1" fill-rule="nonzero"/><path fill="#00e0ff" d="M 211.683594 143.304688 L 199.09375 143.304688 L 199.09375 128.433594 L 209.59375 128.433594 L 209.59375 112.972656 L 221.277344 112.972656 L 221.277344 50.789062 L 199.039062 50.789062 L 199.039062 40.679688 L 132.234375 40.679688 L 132.234375 48.121094 L 151.484375 48.121094 L 151.484375 55.996094 L 132.28125 55.996094 L 132.28125 110.285156 L 151.539062 110.285156 L 151.539062 120.558594 L 132.28125 120.558594 L 132.28125 154.425781 L 145.703125 154.425781 L 145.703125 161.132812 L 132.28125 161.132812 L 132.28125 185.226562 L 163.363281 185.226562 L 163.363281 130.757812 L 178.382812 130.757812 L 178.382812 144.785156 L 187.144531 144.785156 L 187.144531 169.292969 L 196.765625 169.292969 L 196.765625 185.207031 L 222.722656 185.207031 L 222.722656 157.328125 L 211.683594 157.328125 Z M 195.917969 105.898438 L 163.363281 105.898438 L 163.363281 59.789062 L 177.511719 59.789062 L 177.511719 70.578125 L 195.886719 70.578125 Z M 195.917969 105.898438 " fill-opacity="1" fill-rule="nonzero"/><path fill="#00e0ff" d="M 242.5625 40.742188 L 274.371094 40.742188 L 274.371094 68.03125 L 242.5625 68.03125 Z M 242.5625 40.742188 " fill-opacity="1" fill-rule="nonzero"/><path fill="#00e0ff" d="M 242.5625 94.875 L 256.863281 94.875 L 256.863281 102.164062 L 242.5625 102.164062 L 242.5625 185.207031 L 272.621094 185.207031 L 272.621094 174.253906 L 258.472656 174.253906 L 258.472656 166.085938 L 274.371094 166.085938 L 274.371094 79.113281 L 242.5625 79.113281 Z M 242.5625 94.875 " fill-opacity="1" fill-rule="nonzero"/><path fill="#00e0ff" d="M 288.660156 68.03125 L 319.589844 68.03125 L 319.589844 110.335938 L 331.835938 110.335938 L 331.835938 117.644531 L 319.003906 117.644531 L 319.003906 175.722656 L 330.089844 175.722656 L 330.089844 181.847656 L 318.710938 181.847656 L 318.710938 185.207031 L 349.050781 185.207031 L 349.050781 159.089844 L 338.265625 159.089844 L 338.265625 152.660156 L 349.050781 152.660156 L 349.050781 102.761719 L 333.890625 102.761719 L 333.890625 91.953125 L 349.050781 91.953125 L 349.050781 68.03125 L 379.390625 68.03125 L 379.390625 40.742188 L 288.660156 40.742188 Z M 288.660156 68.03125 " fill-opacity="1" fill-rule="nonzero"/><path fill="#00e0ff" d="M 392.523438 69.476562 L 447.960938 69.476562 L 447.960938 81.449219 L 436.296875 81.449219 L 436.296875 100.417969 L 424.914062 100.417969 L 424.914062 119.675781 L 413.523438 119.675781 L 413.523438 139.527344 L 400.40625 139.527344 L 400.40625 155.875 L 392.523438 155.875 L 392.523438 183.597656 L 483.550781 183.597656 L 483.550781 157.339844 L 427.828125 157.339844 L 427.828125 145.957031 L 438.042969 145.957031 L 438.042969 132.152344 L 448.546875 132.152344 L 448.546875 115.015625 L 459.046875 115.015625 L 459.046875 92.835938 L 471.886719 92.835938 L 471.886719 70.355469 L 483.550781 70.355469 L 483.550781 40.742188 L 392.523438 40.742188 Z M 392.523438 69.476562 " fill-opacity="1" fill-rule="nonzero"/><path fill="#ff0060" d="M 764.773438 86.382812 L 765.992188 86.382812 L 765.992188 87.898438 L 764.773438 87.898438 Z M 764.773438 86.382812 " fill-opacity="1" fill-rule="nonzero"/><path fill="#ff0060" d="M 828.699219 145.957031 L 828.699219 132.152344 L 839.203125 132.152344 L 839.203125 115.015625 L 849.703125 115.015625 L 849.703125 92.835938 L 862.539062 92.835938 L 862.539062 70.355469 L 874.199219 70.355469 L 874.199219 40.742188 L 783.175781 40.742188 L 783.175781 69.476562 L 838.625 69.476562 L 838.625 81.449219 L 826.953125 81.449219 L 826.953125 100.417969 L 815.570312 100.417969 L 815.570312 119.675781 L 804.1875 119.675781 L 804.1875 139.527344 L 791.046875 139.527344 L 791.046875 155.875 L 783.175781 155.875 L 783.175781 183.597656 L 874.199219 183.597656 L 874.199219 157.339844 L 818.480469 157.339844 L 818.480469 145.957031 Z M 828.699219 145.957031 " fill-opacity="1" fill-rule="nonzero"/><path fill="#ff0060" d="M 598.792969 40.730469 L 527.324219 40.730469 L 527.324219 45.542969 L 545.992188 45.542969 L 545.992188 57.503906 L 527.324219 57.503906 L 527.324219 91.367188 L 556.199219 91.367188 L 556.054688 68.019531 L 592.664062 68.019531 L 592.664062 90.484375 L 584.792969 90.484375 L 584.792969 98.957031 L 527.324219 98.957031 L 527.324219 105.957031 L 556.777344 105.957031 L 556.777344 115.59375 L 527.324219 115.59375 L 527.324219 129.898438 L 540.167969 129.898438 L 540.167969 138.355469 L 527.324219 138.355469 L 527.324219 185.207031 L 610.203125 185.207031 L 610.203125 166.953125 L 621.832031 166.953125 L 621.832031 121.132812 L 607.886719 121.132812 L 607.886719 101.296875 L 621.832031 101.296875 L 621.832031 56.351562 L 598.792969 56.351562 Z M 592.949219 160.253906 L 555.753906 160.253906 L 555.753906 123.085938 L 592.949219 123.085938 Z M 592.949219 160.253906 " fill-opacity="1" fill-rule="nonzero"/><path fill="#ff0060" d="M 641.101562 76.773438 L 658.320312 76.773438 L 658.320312 88.160156 L 641.101562 88.160156 L 641.101562 185.207031 L 670.269531 185.207031 L 670.269531 167.84375 L 657.136719 167.808594 L 657.136719 157.625 L 670.269531 157.625 L 670.269531 67.433594 L 641.101562 67.433594 Z M 641.101562 76.773438 " fill-opacity="1" fill-rule="nonzero"/><path fill="#ff0060" d="M 641.101562 40.742188 L 670.277344 40.742188 L 670.277344 58.535156 L 641.101562 58.535156 Z M 641.101562 40.742188 " fill-opacity="1" fill-rule="nonzero"/><path fill="#ff0060" d="M 764.773438 86.382812 L 765.992188 86.382812 L 765.992188 87.898438 L 764.773438 87.898438 Z M 764.773438 86.382812 " fill-opacity="1" fill-rule="nonzero"/><path fill="#ff0060" d="M 688.363281 69.191406 L 716.953125 69.191406 L 716.953125 96.480469 L 747.730469 96.480469 L 747.730469 68.609375 L 774.421875 68.609375 L 774.421875 40.742188 L 688.363281 40.742188 Z M 688.363281 69.191406 " fill-opacity="1" fill-rule="nonzero"/><path fill="#ff0060" d="M 716.953125 132.808594 L 733.296875 132.808594 L 733.296875 142.152344 L 716.378906 142.152344 L 716.378906 186.230469 L 747.597656 186.230469 L 747.597656 104.792969 L 716.953125 104.792969 Z M 716.953125 132.808594 " fill-opacity="1" fill-rule="nonzero"/></svg>