<svg xmlns="http://www.w3.org/2000/svg" xmlns:xlink="http://www.w3.org/1999/xlink" width="1600" zoomAndPan="magnify" viewBox="0 0 1200 899.99999" height="1200" preserveAspectRatio="xMidYMid meet" version="1.0"><path fill="#000000" d="M 346.191406 348.257812 L 658.082031 348.257812 L 658.082031 422.84375 L 644.988281 422.84375 L 644.988281 448.066406 L 630.589844 448.066406 L 630.589844 472.964844 L 618.789062 472.964844 L 618.789062 479.113281 L 658.082031 479.113281 L 658.082031 549.921875 L 514.5625 549.921875 L 514.5625 477.480469 L 523.402344 477.480469 L 523.402344 459.132812 L 538.140625 459.132812 L 538.140625 436.847656 L 550.917969 436.847656 L 550.917969 421.855469 L 514.5625 421.855469 L 514.5625 420.222656 L 507.097656 420.222656 L 507.097656 551.738281 L 431.683594 551.738281 L 431.683594 506.621094 L 432.023438 506.621094 L 432.023438 434.578125 L 432.679688 434.578125 L 432.679688 420.222656 L 423.238281 420.222656 L 423.238281 530.269531 L 421.277344 530.269531 L 421.277344 551.738281 L 103.316406 551.738281 L 103.316406 348.257812 L 338.726562 348.257812 L 338.726562 359.546875 L 346.191406 359.546875 Z M 346.191406 348.257812 " fill-opacity="1" fill-rule="nonzero"/><path fill="#00e0ff" d="M 195.476562 389.074219 L 183.9375 389.074219 L 183.9375 413.878906 L 172.636719 413.878906 L 172.636719 428.121094 L 157.238281 428.121094 L 157.238281 441.632812 L 123.988281 441.632812 L 123.988281 481.929688 L 140.613281 481.929688 L 140.613281 491.753906 L 123.988281 491.753906 L 123.988281 531.0625 L 156.089844 531.0625 L 155.761719 468.664062 L 173.375 468.664062 L 173.375 485.367188 L 180.011719 485.367188 L 180.011719 494.945312 L 185.902344 494.945312 L 185.902344 512.882812 L 197.203125 512.882812 L 197.203125 531.0625 L 231.097656 531.0625 L 231.097656 521.234375 L 226.433594 521.234375 L 226.433594 508.207031 L 218.570312 508.207031 L 218.570312 498.394531 L 210.71875 498.394531 L 210.71875 478.492188 L 199.902344 478.492188 L 199.902344 461.785156 L 189.101562 461.785156 L 189.101562 443.597656 L 199.902344 443.597656 L 199.902344 423.21875 L 211.441406 423.21875 L 211.441406 401.351562 L 222.746094 401.351562 L 222.746094 382.683594 L 231.097656 382.683594 L 231.097656 368.933594 L 195.476562 368.933594 Z M 195.476562 389.074219 " fill-opacity="1" fill-rule="nonzero"/><path fill="#000000" d="M 1069.171875 472.964844 L 1069.171875 448.066406 L 1083.582031 448.066406 L 1083.582031 422.84375 L 1096.675781 422.84375 L 1096.675781 348.257812 L 665.902344 348.257812 L 665.902344 551.738281 L 1096.675781 549.921875 L 1096.675781 479.113281 L 1057.371094 479.113281 L 1057.371094 472.964844 Z M 739.566406 482.382812 L 739.136719 482.382812 L 739.136719 481.949219 L 739.566406 481.949219 Z M 739.566406 482.382812 " fill-opacity="1" fill-rule="nonzero"/><path fill="#00e0ff" d="M 123.988281 368.933594 L 156.578125 368.933594 L 156.578125 424.441406 L 123.988281 424.441406 Z M 123.988281 368.933594 " fill-opacity="1" fill-rule="nonzero"/><path fill="#00e0ff" d="M 332.199219 484.039062 L 318.0625 484.039062 L 318.0625 467.347656 L 329.851562 467.347656 L 329.851562 449.996094 L 342.96875 449.996094 L 342.96875 380.210938 L 318.003906 380.210938 L 318.003906 368.863281 L 243 368.863281 L 243 377.214844 L 264.617188 377.214844 L 264.617188 386.054688 L 243.058594 386.054688 L 243.058594 446.980469 L 264.671875 446.980469 L 264.671875 458.507812 L 243.058594 458.507812 L 243.058594 496.519531 L 258.125 496.519531 L 258.125 504.042969 L 243.058594 504.042969 L 243.058594 531.085938 L 277.949219 531.085938 L 277.949219 469.957031 L 294.8125 469.957031 L 294.8125 485.695312 L 304.648438 485.695312 L 304.648438 513.203125 L 315.453125 513.203125 L 315.453125 531.0625 L 344.59375 531.0625 L 344.59375 499.777344 L 332.199219 499.777344 Z M 314.5 442.054688 L 277.949219 442.054688 L 277.949219 390.3125 L 293.835938 390.3125 L 293.835938 402.417969 L 314.464844 402.417969 Z M 314.5 442.054688 " fill-opacity="1" fill-rule="nonzero"/><path fill="#00e0ff" d="M 366.867188 368.933594 L 402.578125 368.933594 L 402.578125 399.558594 L 366.867188 399.558594 Z M 366.867188 368.933594 " fill-opacity="1" fill-rule="nonzero"/><path fill="#00e0ff" d="M 366.867188 429.6875 L 382.921875 429.6875 L 382.921875 437.867188 L 366.867188 437.867188 L 366.867188 531.0625 L 400.613281 531.0625 L 400.613281 518.773438 L 384.726562 518.773438 L 384.726562 509.605469 L 402.578125 509.605469 L 402.578125 411.996094 L 366.867188 411.996094 Z M 366.867188 429.6875 " fill-opacity="1" fill-rule="nonzero"/><path fill="#00e0ff" d="M 418.621094 399.558594 L 453.34375 399.558594 L 453.34375 447.035156 L 467.097656 447.035156 L 467.097656 455.238281 L 452.6875 455.238281 L 452.6875 520.417969 L 465.132812 520.417969 L 465.132812 527.292969 L 452.355469 527.292969 L 452.355469 531.0625 L 486.421875 531.0625 L 486.421875 501.753906 L 474.3125 501.753906 L 474.3125 494.535156 L 486.421875 494.535156 L 486.421875 438.535156 L 469.402344 438.535156 L 469.402344 426.40625 L 486.421875 426.40625 L 486.421875 399.558594 L 520.484375 399.558594 L 520.484375 368.933594 L 418.621094 368.933594 Z M 418.621094 399.558594 " fill-opacity="1" fill-rule="nonzero"/><path fill="#00e0ff" d="M 535.226562 401.179688 L 597.464844 401.179688 L 597.464844 414.617188 L 584.371094 414.617188 L 584.371094 435.902344 L 571.59375 435.902344 L 571.59375 457.519531 L 558.804688 457.519531 L 558.804688 479.796875 L 544.078125 479.796875 L 544.078125 498.144531 L 535.226562 498.144531 L 535.226562 529.257812 L 637.417969 529.257812 L 637.417969 499.789062 L 574.863281 499.789062 L 574.863281 487.011719 L 586.335938 487.011719 L 586.335938 471.523438 L 598.125 471.523438 L 598.125 452.289062 L 609.914062 452.289062 L 609.914062 427.394531 L 624.324219 427.394531 L 624.324219 402.167969 L 637.417969 402.167969 L 637.417969 368.933594 L 535.226562 368.933594 Z M 535.226562 401.179688 " fill-opacity="1" fill-rule="nonzero"/><path fill="#2afea0" d="M 953.144531 420.152344 L 954.519531 420.152344 L 954.519531 421.855469 L 953.144531 421.855469 Z M 953.144531 420.152344 " fill-opacity="1" fill-rule="nonzero"/><path fill="#2afea0" d="M 1024.917969 487.011719 L 1024.917969 471.523438 L 1036.707031 471.523438 L 1036.707031 452.289062 L 1048.496094 452.289062 L 1048.496094 427.394531 L 1062.90625 427.394531 L 1062.90625 402.167969 L 1076.003906 402.167969 L 1076.003906 368.933594 L 973.808594 368.933594 L 973.808594 401.179688 L 1036.058594 401.179688 L 1036.058594 414.617188 L 1022.953125 414.617188 L 1022.953125 435.902344 L 1010.175781 435.902344 L 1010.175781 457.519531 L 997.398438 457.519531 L 997.398438 479.796875 L 982.648438 479.796875 L 982.648438 498.144531 L 973.808594 498.144531 L 973.808594 529.257812 L 1076.003906 529.257812 L 1076.003906 499.789062 L 1013.445312 499.789062 L 1013.445312 487.011719 Z M 1024.917969 487.011719 " fill-opacity="1" fill-rule="nonzero"/><path fill="#2afea0" d="M 766.800781 368.921875 L 686.566406 368.921875 L 686.566406 374.324219 L 707.523438 374.324219 L 707.523438 387.746094 L 686.566406 387.746094 L 686.566406 425.75 L 718.984375 425.75 L 718.824219 399.546875 L 759.925781 399.546875 L 759.925781 424.761719 L 751.085938 424.761719 L 751.085938 434.269531 L 686.566406 434.269531 L 686.566406 442.121094 L 719.628906 442.121094 L 719.628906 452.9375 L 686.566406 452.9375 L 686.566406 468.992188 L 700.988281 468.992188 L 700.988281 478.480469 L 686.566406 478.480469 L 686.566406 531.0625 L 779.613281 531.0625 L 779.613281 510.582031 L 792.671875 510.582031 L 792.671875 459.15625 L 777.015625 459.15625 L 777.015625 436.890625 L 792.671875 436.890625 L 792.671875 386.453125 L 766.800781 386.453125 Z M 760.242188 503.058594 L 718.484375 503.058594 L 718.484375 461.34375 L 760.242188 461.34375 Z M 760.242188 503.058594 " fill-opacity="1" fill-rule="nonzero"/><path fill="#2afea0" d="M 814.300781 409.375 L 833.636719 409.375 L 833.636719 422.152344 L 814.300781 422.152344 L 814.300781 531.0625 L 847.050781 531.0625 L 847.050781 511.578125 L 832.308594 511.535156 L 832.308594 500.105469 L 847.050781 500.105469 L 847.050781 398.890625 L 814.300781 398.890625 Z M 814.300781 409.375 " fill-opacity="1" fill-rule="nonzero"/><path fill="#2afea0" d="M 814.300781 368.933594 L 847.058594 368.933594 L 847.058594 388.902344 L 814.300781 388.902344 Z M 814.300781 368.933594 " fill-opacity="1" fill-rule="nonzero"/><path fill="#2afea0" d="M 953.144531 420.152344 L 954.519531 420.152344 L 954.519531 421.855469 L 953.144531 421.855469 Z M 953.144531 420.152344 " fill-opacity="1" fill-rule="nonzero"/><path fill="#2afea0" d="M 867.359375 400.863281 L 899.460938 400.863281 L 899.460938 431.488281 L 934.015625 431.488281 L 934.015625 400.207031 L 963.984375 400.207031 L 963.984375 368.933594 L 867.359375 368.933594 Z M 867.359375 400.863281 " fill-opacity="1" fill-rule="nonzero"/><path fill="#2afea0" d="M 899.460938 472.261719 L 917.808594 472.261719 L 917.808594 482.746094 L 898.816406 482.746094 L 898.816406 532.207031 L 933.867188 532.207031 L 933.867188 440.816406 L 899.460938 440.816406 Z M 899.460938 472.261719 " fill-opacity="1" fill-rule="nonzero"/></svg>